<?xml version="1.0" encoding="UTF-8" standalone="no"?>
<!-- Created with Inkscape (http://www.inkscape.org/) -->

<svg
   width="226.90315"
   height="226.90315"
   viewBox="0 0 60.034793 60.034793"
   version="1.1"
   id="svg1"
   inkscape:version="1.3.2 (091e20e, 2023-11-25, custom)"
   sodipodi:docname="logo_pachira_round.svg"
   xmlns:inkscape="http://www.inkscape.org/namespaces/inkscape"
   xmlns:sodipodi="http://sodipodi.sourceforge.net/DTD/sodipodi-0.dtd"
   xmlns="http://www.w3.org/2000/svg"
   xmlns:svg="http://www.w3.org/2000/svg">
  <sodipodi:namedview
     id="namedview1"
     pagecolor="#ffffff"
     bordercolor="#666666"
     borderopacity="1.0"
     inkscape:showpageshadow="2"
     inkscape:pageopacity="0.0"
     inkscape:pagecheckerboard="0"
     inkscape:deskcolor="#d1d1d1"
     inkscape:document-units="mm"
     inkscape:zoom="1.8467166"
     inkscape:cx="103.96831"
     inkscape:cy="111.27858"
     inkscape:window-width="1920"
     inkscape:window-height="1017"
     inkscape:window-x="1912"
     inkscape:window-y="-8"
     inkscape:window-maximized="1"
     inkscape:current-layer="layer1" />
  <defs
     id="defs1" />
  <g
     inkscape:label="Layer 1"
     inkscape:groupmode="layer"
     id="layer1"
     transform="translate(-39.089276,-42.868477)">
    <g
       id="g1">
      <rect
         style="fill:#ffffff;fill-opacity:1;stroke:none;stroke-width:0.656448;stroke-linecap:round;stroke-linejoin:round;stroke-opacity:1"
         id="rect29"
         width="60.034794"
         height="60.034794"
         x="39.089275"
         y="42.868477" />
      <circle
         style="opacity:0;fill:none;fill-opacity:1;stroke:none;stroke-width:1.5;stroke-linecap:round;stroke-dasharray:none;stroke-opacity:1"
         id="path22-0-2"
         cx="69.106674"
         cy="72.885872"
         r="27.199314" />
      <path
         id="rect7-4-7-2-4-4-3-1-7-5-4-9-8-5-5-7-2-8-2-9-6-2"
         style="display:inline;fill:#365a00;fill-opacity:1;stroke-width:1.91308;stroke-linecap:round"
         d="m 69.124677,60.96784 c -0.46816,0 -1.43304,0.004 -1.46751,0.47076 -0.044,0.59595 0.16287,6.99899 0.33877,12.16086 -1.81005,-4.8455 -4.069612,-10.85272 -4.348728,-11.3621 -0.22494,-0.41056 -0.987078,-0.10048 -1.419591,0.0787 -0.432512,0.17916 -1.322001,0.55171 -1.175169,0.99626 0.211559,0.64046 3.068976,6.93607 5.253078,11.73215 -3.603127,-3.87037 -8.811635,-9.44468 -9.306534,-9.8423 -0.364936,-0.29322 -0.950702,0.28491 -1.28173,0.61594 -0.331036,0.33103 -1.010203,1.0157 -0.704426,1.37022 0.621205,0.72021 11.99403,11.30541 12.97528,12.21855 0.0225,0.028 0.10069,0.10741 0.13086,0.13786 0.0211,0.0213 0.11568,0.0947 0.14241,0.11499 0.0249,0.0189 0.164,0.10646 0.20787,0.12644 0.0434,0.0198 0.14563,0.0616 0.16673,0.0689 0.0211,0.008 0.0624,0.021 0.1474,0.0417 0.0663,0.0161 0.24336,0.0374 0.28869,0.0379 0.0418,3.4e-4 0.20107,6.4e-4 0.33174,-0.0303 0.0879,-0.0208 0.13818,-0.0319 0.18671,-0.0494 0.0636,-0.0229 0.21642,-0.094 0.24571,-0.11124 0.0324,-0.019 0.13274,-0.0862 0.15054,-0.0998 0,0 0.0617,-0.0474 0.0845,-0.0672 0.0327,-0.0285 0.12128,-0.11313 0.11962,-0.11763 0.86561,-0.80551 12.41272,-11.54668 13.03736,-12.27086 0.30578,-0.35452 -0.37339,-1.03919 -0.70442,-1.37022 -0.33103,-0.33103 -0.91681,-0.90915 -1.28174,-0.61594 -0.50304,0.40417 -5.88664,6.16821 -9.48838,10.03783 2.1759,-4.77709 5.12673,-11.27633 5.34204,-11.92817 0.14683,-0.44455 -0.74266,-0.8171 -1.17517,-0.99626 -0.43251,-0.17919 -1.19465,-0.48926 -1.41959,-0.0787 -0.28005,0.5111 -2.55422,6.55642 -4.3668,11.40904 0.18237,-5.17629 0.39505,-11.6281 0.33192,-12.20732 -0.0507,-0.46538 -0.87323,-0.47075 -1.34138,-0.47075 z"
         sodipodi:nodetypes="sccssscssscssssssssssscssscssscss" />
      <path
         style="display:inline;fill:#365a00;fill-opacity:1;stroke:none;stroke-width:0.189425px;stroke-linecap:butt;stroke-linejoin:miter;stroke-opacity:1"
         d="m 56.751292,77.51883 c 0.434797,-0.2744 6.420778,-0.0655 6.624999,0 0.29846,0.0958 3.421566,3.43388 3.653656,3.65367 0.16322,0.15458 4.03603,0.12495 4.22592,0 0.26226,-0.17256 3.40577,-3.51918 3.63164,-3.63166 0.32785,-0.16328 6.36803,-0.28924 6.64701,0 0.26033,0.2699 0.23782,5.44478 0,5.74461 -0.25321,0.31923 -4.12935,0.19948 -4.24793,0 -0.13633,-0.22935 -0.19601,-1.9869 0,-2.15697 0.16065,-0.13939 1.90887,0.14357 2.09095,0 0.19842,-0.15646 0.0298,-1.24447 0,-1.45266 -0.0323,-0.22583 -3.24505,-0.11208 -3.56561,0 -0.1992,0.0697 -3.36249,3.5152 -3.65366,3.65365 -0.22156,0.10535 -5.6803,0.1083 -5.98671,0 -0.292976,-0.10355 -3.528136,-3.59163 -3.653654,-3.65365 -0.245725,-0.12142 -3.631647,-0.2715 -3.631647,0 0,0 -0.190934,1.31549 0,1.47467 0.215003,0.17925 1.928122,-0.0582 2.112963,0 0.20571,0.0648 0.1952,1.90484 0,2.15697 -0.137754,0.17794 -3.976858,0.26511 -4.29195,0 -0.304689,-0.25637 -0.241772,-5.60825 0.04403,-5.78863 z"
         id="path15-1-0-0-5-5-8-6-5-9-2-2"
         sodipodi:nodetypes="ssssssssssssssssssssss" />
      <path
         style="font-size:9.87778px;line-height:109%;font-family:Bontang;-inkscape-font-specification:Bontang;letter-spacing:1.32292px;word-spacing:0px;fill:#365a00;stroke-width:0.199686"
         d="m 89.083463,60.610945 -0.387303,0.20847 c -0.0919,0.04947 -0.125258,0.16053 -0.07578,0.252447 l 1.056487,1.962757 c 0.04947,0.0919 0.16053,0.125258 0.252448,0.07578 l 0.387302,-0.208471 c 0.0919,-0.04947 0.131793,-0.164088 0.08234,-0.255977 L 89.342469,60.68319 c -0.04947,-0.0919 -0.167083,-0.121733 -0.259006,-0.07225 z m 5.148463,7.242646 -4.797038,0.736029 c -0.103167,0.01583 -0.171802,0.109302 -0.155932,0.212509 l 0.07575,0.493699 c 0.01582,0.103167 0.109301,0.171802 0.212508,0.155932 l 1.576903,-0.241947 c 0.103167,-0.01582 0.196656,0.05279 0.212509,0.155932 l 0.126628,0.825295 c 0.113058,0.736875 0.819636,1.262006 1.556506,1.148942 l 0.530552,-0.0814 c 0.73687,-0.113064 1.247263,-0.817376 1.134205,-1.554251 L 94.444475,68.00953 c -0.01582,-0.103167 -0.109302,-0.171802 -0.212509,-0.155932 z m -0.517375,1.150375 0.127755,0.832669 c 0.04183,0.272639 -0.131699,0.517991 -0.404349,0.559823 l -0.530546,0.0814 c -0.272639,0.04183 -0.520251,-0.146441 -0.562088,-0.419086 l -0.126629,-0.825295 c -0.01582,-0.103167 0.0528,-0.196651 0.155932,-0.212509 l 1.127413,-0.172986 c 0.103167,-0.01582 0.196657,0.05279 0.212509,0.155932 z m 0.951619,5.326339 -4.769892,-2.071952 c -0.007,-0.0079 -0.02186,-0.0088 -0.04424,-0.01006 -0.06702,-0.0039 -0.130006,0.05213 -0.133937,0.119101 l -0.03274,0.558161 c -0.007,0.119077 0.06177,0.220184 0.156321,0.263086 l 0.619052,0.267799 c 0.09458,0.04287 0.163301,0.144009 0.156777,0.255623 l -0.08771,1.495879 c -0.007,0.119071 -0.08708,0.211455 -0.186,0.243005 l -0.646108,0.193614 c -0.09894,0.03153 -0.179015,0.123934 -0.186,0.243005 l -0.03229,0.55073 c -0.0043,0.07443 0.05167,0.137463 0.118781,0.141269 0.02232,0.0013 0.03765,-0.0053 0.0451,-0.0048 l 4.979787,-1.507733 c 0.09894,-0.03153 0.179015,-0.123934 0.185562,-0.235567 l 0.01396,-0.238147 c 0.0065,-0.111633 -0.06177,-0.220188 -0.156317,-0.26308 z m -1.722125,0.332146 -1.360948,0.413073 c -0.0079,0.007 -0.02278,0.0061 -0.0451,0.0048 -0.06702,-0.0039 -0.12302,-0.06696 -0.119095,-0.133941 l 0.05062,-0.863292 c 0.0039,-0.06702 0.06696,-0.123015 0.133931,-0.119095 0.02232,0.0013 0.03719,0.0022 0.04424,0.01006 l 1.303786,0.561857 c 0.0214,0.01624 0.04234,0.03994 0.04074,0.06958 -0.0018,0.02978 -0.02538,0.05083 -0.04811,0.05691 z m 0.466793,6.748158 c 0.463073,-1.362253 -0.273029,-2.85656 -1.635281,-3.319633 -1.362248,-0.463078 -2.849502,0.275433 -3.31258,1.63768 -0.232735,0.684654 -0.163944,1.408816 0.134228,2.014103 0.02558,0.04035 0.05378,0.0734 0.09612,0.08781 0.04938,0.01679 0.09899,0.01002 0.148643,-0.02033 l 0.432932,-0.2544 c 0.04035,-0.02558 0.06614,-0.05642 0.08074,-0.09854 0.01679,-0.04938 0.0148,-0.113086 -0.0085,-0.160358 -0.1745,-0.390026 -0.207133,-0.849931 -0.05838,-1.287547 0.311918,-0.917572 1.288458,-1.404503 2.20603,-1.092585 0.917577,0.311913 1.402104,1.295511 1.090191,2.213089 -0.146362,0.430557 -0.44786,0.784749 -0.830969,0.985223 -0.04731,0.02328 -0.08773,0.07248 -0.104434,0.121988 -0.01438,0.04231 -0.01226,0.08244 0.004,0.127329 l 0.188193,0.465546 c 0.02092,0.05433 0.05607,0.0899 0.105465,0.106707 0.04236,0.01444 0.08485,0.0052 0.129727,-0.01102 0.612346,-0.295768 1.103561,-0.837443 1.333898,-1.515032 z m -2.081087,4.198926 -4.043263,-2.684276 c -0.08696,-0.05772 -0.200626,-0.03476 -0.25835,0.05219 l -0.27626,0.416129 c -0.05773,0.08696 -0.03477,0.200625 0.05218,0.258355 l 1.50303,0.997839 c 0.08696,0.05772 0.109937,0.171382 0.05218,0.258356 l -0.634989,0.956469 c -0.05772,0.08696 -0.171381,0.109937 -0.25835,0.05219 l -1.50303,-0.997839 c -0.08696,-0.05773 -0.200625,-0.03477 -0.258356,0.05218 l -0.27626,0.416129 c -0.05772,0.08696 -0.03476,0.200626 0.05219,0.25835 l 4.043263,2.684276 c 0.08696,0.05772 0.20063,0.03477 0.25835,-0.05219 l 0.276265,-0.416123 c 0.05773,-0.08696 0.03477,-0.200631 -0.05219,-0.258362 l -1.503025,-0.997833 c -0.08696,-0.05773 -0.109937,-0.171381 -0.05218,-0.258355 l 0.634984,-0.956475 c 0.05772,-0.08695 0.171381,-0.109937 0.258355,-0.05218 l 1.50303,0.997839 c 0.08696,0.05772 0.20062,0.03476 0.258351,-0.05219 l 0.27626,-0.416129 c 0.05772,-0.08696 0.03476,-0.200626 -0.05219,-0.25835 z m -3.256738,4.390654 -3.539447,-3.320474 c -0.0761,-0.07143 -0.192034,-0.06771 -0.263441,0.0084 l -0.341731,0.364292 c -0.07142,0.0761 -0.06771,0.192029 0.0084,0.263436 l 3.539452,3.320479 c 0.0761,0.07142 0.19203,0.06771 0.263436,-0.0084 l 0.341726,-0.364287 c 0.07142,-0.0761 0.06772,-0.192029 -0.0084,-0.26344 z m -2.191307,2.215617 -2.918393,-3.877662 c -0.06279,-0.08337 -0.177561,-0.09962 -0.260986,-0.03684 l -0.399082,0.300355 c -0.08337,0.06279 -0.09958,0.177618 -0.03684,0.260987 l 0.959346,1.274682 c 0.06279,0.08337 0.04655,0.19823 -0.03684,0.260986 L 82.78983,90.69867 81.030401,89.774218 c -0.09401,-0.05054 -0.222234,-0.04734 -0.31754,0.02438 l -0.470564,0.354149 c -0.05362,0.04033 -0.06394,0.113401 -0.02358,0.167029 0.009,0.01189 0.02238,0.02978 0.03732,0.03722 l 1.88777,0.995808 c -0.245253,0.455161 -0.224914,1.027669 0.102342,1.462493 l 0.322773,0.428864 c 0.448293,0.595643 1.310281,0.711992 1.905934,0.263701 l 1.369985,-1.031077 c 0.08337,-0.06279 0.09958,-0.177623 0.03684,-0.260986 z m -1.258248,0.08858 -0.673064,0.50659 c -0.220409,0.165847 -0.518649,0.129094 -0.684517,-0.09129 l -0.322773,-0.428865 c -0.165868,-0.220387 -0.117181,-0.527617 0.103212,-0.69349 l 0.667143,-0.502063 c 0.08342,-0.06273 0.198224,-0.04655 0.260987,0.03684 l 0.68589,0.911344 c 0.06279,0.08337 0.04655,0.198224 -0.03684,0.260986 z m -5.52431,4.082972 -0.181095,-5.197306 c 0.0041,-0.0097 -0.0015,-0.02353 -0.0099,-0.04422 -0.02527,-0.06217 -0.102973,-0.09495 -0.165124,-0.06968 l -0.517973,0.210526 c -0.110525,0.04489 -0.172368,0.15029 -0.170255,0.254281 l 0.0245,0.674054 c 0.002,0.103817 -0.05975,0.209373 -0.163345,0.251478 l -1.388165,0.564212 c -0.110525,0.04489 -0.228354,0.01234 -0.299376,-0.06341 l -0.452694,-0.500014 c -0.07104,-0.07573 -0.188878,-0.108317 -0.299375,-0.06341 l -0.511068,0.207719 c -0.06905,0.02808 -0.10184,0.105797 -0.07662,0.167907 0.0084,0.02073 0.02098,0.03172 0.02375,0.03863 l 3.503024,3.847128 c 0.07104,0.07573 0.188877,0.108317 0.29247,0.06621 l 0.220999,-0.08983 c 0.103605,-0.04209 0.172369,-0.150289 0.17025,-0.254286 z m -1.040568,-1.41182 -0.958271,-1.050963 c -0.0097,-0.0041 -0.01531,-0.01789 -0.02375,-0.03863 -0.02527,-0.06217 0.0075,-0.139865 0.06969,-0.165127 l 0.801131,-0.325616 c 0.06213,-0.02529 0.139861,0.0075 0.165123,0.06969 0.0085,0.02073 0.01404,0.03453 0.0099,0.04422 l 0.05355,1.418682 c -0.0054,0.02632 -0.01767,0.05549 -0.0453,0.06672 -0.02763,0.01122 -0.05678,-0.0011 -0.0721,-0.01898 z m -7.862091,1.222144 0.0043,-0.439822 c 0.001,-0.104366 -0.08017,-0.187165 -0.18454,-0.188188 l -2.228923,-0.02183 c -0.104375,-0.001 -0.187167,0.08018 -0.188204,0.184524 l -0.0043,0.439822 c -10e-4,0.104366 0.0801,0.194619 0.184465,0.195647 l 2.228922,0.02183 c 0.104376,0.001 0.187259,-0.08761 0.188246,-0.192014 z m -8.828017,1.014255 1.670241,-4.556707 c 0.03591,-0.098 -0.01285,-0.203211 -0.110851,-0.239129 l -0.468971,-0.1719 c -0.09799,-0.03591 -0.203211,0.01286 -0.239113,0.110867 l -0.54905,1.497904 c -0.03591,0.098 -0.141138,0.146765 -0.239113,0.110867 L 60.647669,93.67649 c -0.699957,-0.256568 -1.500869,0.108879 -1.757433,0.808836 l -0.184728,0.503966 c -0.256564,0.699958 0.114013,1.486867 0.813969,1.743435 l 1.609899,0.590103 c 0.09799,0.03591 0.203211,-0.01286 0.239113,-0.110868 z m -0.757894,-1.008278 -0.790951,-0.289922 c -0.258981,-0.09493 -0.39013,-0.36532 -0.295204,-0.624305 l 0.184729,-0.503966 c 0.09493,-0.258986 0.379311,-0.38501 0.638303,-0.290071 l 0.783952,0.287355 c 0.09799,0.03591 0.146764,0.141137 0.11084,0.239128 l -0.392544,1.070933 c -0.03591,0.098 -0.141138,0.146765 -0.239112,0.110867 z m -5.124338,-1.736842 4.116532,-3.177889 c 0.01429,-0.0086 0.02201,-0.02146 0.03024,-0.03377 0.03972,-0.06309 0.0234,-0.135044 -0.03968,-0.174777 l -0.473079,-0.298019 c -0.09461,-0.05961 -0.218685,-0.05846 -0.305853,0.01 l -0.53328,0.412989 c -0.08741,0.06817 -0.20493,0.07355 -0.299544,0.01395 L 56.71373,90.420596 c -0.09461,-0.05961 -0.147155,-0.172013 -0.123071,-0.280179 l 0.142214,-0.659336 c 0.02408,-0.108191 -0.02846,-0.220576 -0.123071,-0.280179 l -0.466771,-0.294046 c -0.06308,-0.03974 -0.141353,-0.02737 -0.181088,0.03571 -0.0077,0.01287 -0.0159,0.02523 -0.01755,0.0418 l -1.082528,5.089173 c -0.02408,0.10819 0.02215,0.216602 0.116763,0.276205 l 0.201845,0.127154 c 0.09462,0.05961 0.21869,0.05847 0.305858,-0.01 z m 0.540125,-1.668622 0.294958,-1.391336 c 0.0017,-0.01657 0.0096,-0.02921 0.01756,-0.0418 0.03972,-0.06309 0.11168,-0.07944 0.17478,-0.03968 l 0.731692,0.460932 c 0.06308,0.03974 0.07942,0.111706 0.03968,0.174783 -0.0077,0.01287 -0.0159,0.02523 -0.03024,0.03377 l -1.121264,0.870801 c -0.02201,0.02147 -0.05536,0.018 -0.08064,0.0021 -0.02522,-0.01588 -0.0362,-0.04042 -0.02662,-0.06964 z m -6.13569,-2.847587 c 0.969672,1.062964 2.633698,1.139343 3.696664,0.169671 1.062981,-0.969656 1.133836,-2.628673 0.164165,-3.691638 -0.48735,-0.534242 -1.154811,-0.82345 -1.828844,-0.854385 -0.04762,0.0031 -0.09026,0.01167 -0.123276,0.04185 -0.0386,0.03512 -0.05651,0.08186 -0.05392,0.139999 l 0.0139,0.50195 c 0.0031,0.04763 0.0172,0.08522 0.04735,0.118269 0.03515,0.03853 0.09189,0.06754 0.144543,0.06996 0.42581,0.03537 0.844375,0.228727 1.155874,0.570195 0.653146,0.715988 0.60838,1.80627 -0.107609,2.459416 -0.715968,0.653169 -1.811295,0.602875 -2.464442,-0.113113 -0.306503,-0.335942 -0.471205,-0.770962 -0.461918,-1.203249 0.0024,-0.05268 -0.02125,-0.11179 -0.05642,-0.150344 -0.03016,-0.03307 -0.06628,-0.05053 -0.113427,-0.05798 l -0.498573,-0.05983 c -0.05769,-0.0079 -0.105818,0.0057 -0.14437,0.04085 -0.03305,0.03015 -0.04549,0.07182 -0.05292,0.118974 -0.03645,0.679054 0.200935,1.370684 0.683259,1.899415 z m -2.673397,-3.849014 4.302193,-2.245981 c 0.09251,-0.04831 0.127248,-0.158964 0.07896,-0.251466 l -0.231153,-0.442775 c -0.0483,-0.09252 -0.158951,-0.127267 -0.251468,-0.07897 l -1.599277,0.834915 c -0.09251,0.04831 -0.203164,0.01356 -0.251468,-0.07897 l -0.531306,-1.017719 c -0.0483,-0.09252 -0.01356,-0.203165 0.07896,-0.251467 l 1.599276,-0.834914 c 0.09252,-0.04831 0.127248,-0.158965 0.07896,-0.251467 l -0.231153,-0.442775 c -0.0483,-0.09252 -0.158946,-0.127261 -0.251463,-0.07896 l -4.302194,2.245981 c -0.09251,0.04831 -0.127247,0.158964 -0.07896,0.251467 l 0.231153,0.442775 c 0.0483,0.09252 0.158952,0.127267 0.251469,0.07897 l 1.599277,-0.834914 c 0.09251,-0.04831 0.203168,-0.01355 0.251469,0.07897 l 0.531305,1.01772 c 0.0483,0.09252 0.01356,0.203164 -0.07896,0.251467 l -1.599277,0.834914 c -0.09251,0.04831 -0.127247,0.158964 -0.07896,0.251467 l 0.231153,0.442775 c 0.0483,0.09252 0.158947,0.127261 0.251464,0.07896 z m -2.274003,-4.97123 4.616293,-1.497705 c 0.09927,-0.03222 0.152084,-0.135388 0.119761,-0.234793 l -0.154139,-0.4751 c -0.03221,-0.09928 -0.135502,-0.151986 -0.234795,-0.119764 l -4.616292,1.497705 c -0.09927,0.03222 -0.152085,0.135388 -0.119761,0.234793 l 0.154139,0.4751 c 0.03221,0.09928 0.135502,0.151986 0.234794,0.119764 z m -0.883107,-2.98846 4.804605,-0.684865 c 0.103312,-0.01474 0.172937,-0.107484 0.158216,-0.210801 l -0.07048,-0.494482 c -0.01473,-0.103329 -0.107488,-0.17294 -0.210812,-0.158206 l -1.579398,0.225128 c -0.103312,0.01474 -0.196079,-0.05488 -0.210813,-0.158206 l -0.07048,-0.494482 1.658738,-1.094892 c 0.08964,-0.05795 0.148718,-0.171792 0.131874,-0.289891 l -0.08311,-0.58305 c -0.0095,-0.06644 -0.0685,-0.110721 -0.134916,-0.10125 -0.01478,0.0021 -0.03692,0.0052 -0.05063,0.01472 l -1.783163,1.172877 C 46.339485,74.850055 45.828234,74.591596 45.28947,74.668397 l -0.531388,0.07574 c -0.738035,0.1052 -1.255906,0.804035 -1.150704,1.54207 l 0.241964,1.697481 c 0.01473,0.10333 0.107483,0.172935 0.210812,0.158207 z m 0.529606,-1.144795 -0.118877,-0.833978 c -0.03892,-0.273073 0.137216,-0.516561 0.41029,-0.555485 l 0.531383,-0.07575 c 0.273074,-0.03892 0.518666,0.15198 0.557591,0.425053 l 0.117825,0.826598 c 0.01472,0.103324 -0.05488,0.19608 -0.158216,0.210801 l -1.129191,0.160961 c -0.103312,0.01474 -0.196079,-0.05488 -0.210813,-0.158207 z m -0.910251,-6.808827 4.639497,2.349438 c 0.01392,0.0091 0.02872,0.01088 0.04356,0.01267 0.07402,0.0087 0.131985,-0.03696 0.140698,-0.111025 l 0.06556,-0.555263 c 0.01309,-0.111074 -0.04128,-0.222569 -0.140558,-0.271827 l -0.602201,-0.303817 c -0.09927,-0.04925 -0.154547,-0.153366 -0.141428,-0.264422 l 0.17571,-1.48811 c 0.01309,-0.111074 0.09198,-0.206834 0.200005,-0.231611 l 0.6564,-0.155202 c 0.108037,-0.02476 0.186911,-0.120537 0.200005,-0.231612 l 0.06469,-0.547862 c 0.0088,-0.07401 -0.03609,-0.139382 -0.110123,-0.148123 -0.01479,-0.0017 -0.02964,-0.0035 -0.0453,0.0022 l -5.059982,1.211656 c -0.108037,0.02476 -0.185994,0.113181 -0.199139,0.224199 l -0.02797,0.236916 c -0.01309,0.111074 0.04128,0.222569 0.140559,0.271827 z m 1.738705,-0.230089 1.382926,-0.332153 c 0.01561,-0.0057 0.0305,-0.0039 0.0453,-0.0022 0.07402,0.0087 0.119744,0.06669 0.110998,0.140724 l -0.101402,0.858812 c -0.0088,0.07401 -0.06668,0.119748 -0.140698,0.111026 -0.01479,-0.0017 -0.02964,-0.0035 -0.04356,-0.01267 l -1.26841,-0.637662 c -0.02872,-0.01088 -0.04006,-0.04226 -0.03655,-0.07188 0.0035,-0.02959 0.02091,-0.0501 0.05166,-0.0537 z m 2.723556,-7.475851 0.383141,0.216015 c 0.09091,0.05126 0.202625,0.0201 0.253884,-0.07081 l 1.094726,-1.941688 c 0.05126,-0.09091 0.0201,-0.202626 -0.07082,-0.253885 l -0.383141,-0.216015 c -0.09092,-0.05126 -0.209118,-0.02376 -0.260372,0.06716 l -1.094726,1.941688 c -0.05126,0.09091 -0.01361,0.206279 0.07731,0.257538 z m 3.371757,-8.22151 3.185064,3.661785 c 0.06854,0.07871 0.184186,0.0868 0.262933,0.01831 l 0.376793,-0.327895 c 0.07871,-0.06854 0.0868,-0.184187 0.01831,-0.262934 l -1.046992,-1.203735 c -0.06854,-0.07871 -0.06044,-0.194441 0.01831,-0.262933 l 0.630176,-0.547754 c 0.562639,-0.489086 0.6289,-1.367093 0.139649,-1.929577 l -0.352006,-0.40522 C 54.256688,52.438238 53.38846,52.383227 52.82597,52.872483 l -1.293717,1.125291 c -0.07871,0.06854 -0.0868,0.184181 -0.01831,0.262933 z m 1.248848,-0.177254 0.635758,-0.552686 c 0.208198,-0.180941 0.508234,-0.165414 0.689259,0.04271 l 0.352001,0.405215 c 0.180941,0.208198 0.154163,0.518024 -0.05396,0.699049 l -0.630176,0.547753 c -0.07871,0.06854 -0.194441,0.06044 -0.262933,-0.01831 L 52.743786,54.34669 c -0.06854,-0.07871 -0.06044,-0.194431 0.01831,-0.262934 z m 3.993558,-3.64977 0.797,5.139027 c 6.84e-4,0.01662 0.0079,0.02968 0.01511,0.04275 0.03607,0.06522 0.107001,0.08565 0.172232,0.04959 l 0.489307,-0.270542 c 0.09784,-0.05413 0.156716,-0.163349 0.138852,-0.272701 l -0.104374,-0.666375 c -0.01788,-0.109373 0.03446,-0.214989 0.132326,-0.269099 l 1.311346,-0.725064 c 0.09784,-0.05413 0.221661,-0.0459 0.304782,0.02741 l 0.50887,0.442723 c 0.08311,0.07331 0.206927,0.08151 0.304788,0.0274 l 0.48278,-0.26694 c 0.06522,-0.03607 0.0922,-0.110575 0.05611,-0.175839 -0.0074,-0.01291 -0.0142,-0.02633 -0.02829,-0.03543 L 57.4017,50.076787 c -0.0831,-0.07331 -0.2004,-0.08512 -0.298261,-0.03101 l -0.208749,0.115461 c -0.09784,0.05413 -0.156711,0.163344 -0.138852,0.272701 z m 1.200867,1.278262 1.076293,0.929729 c 0.01352,0.0096 0.0209,0.02252 0.02829,0.03543 0.03607,0.06522 0.01566,0.136158 -0.04959,0.172232 l -0.756791,0.418443 c -0.06522,0.03607 -0.136158,0.01566 -0.172232,-0.04959 -0.0074,-0.01291 -0.0142,-0.02633 -0.01511,-0.04275 L 57.84604,51.77329 c -0.0079,-0.02968 0.01102,-0.05717 0.03704,-0.07161 0.02633,-0.0142 0.05289,-0.01218 0.07385,0.01029 z m 5.454152,-3.9998 c -1.398926,0.336411 -2.26875,1.757054 -1.932333,3.155975 0.336416,1.398921 1.75531,2.261499 3.154236,1.925088 0.703086,-0.16908 1.278463,-0.61415 1.630795,-1.189597 0.02032,-0.04323 0.03329,-0.08471 0.02285,-0.128174 -0.01221,-0.05075 -0.0444,-0.089 -0.09648,-0.114895 l -0.446362,-0.230028 c -0.04323,-0.02032 -0.08293,-0.02603 -0.12643,-0.0156 -0.05075,0.01221 -0.103521,0.04786 -0.131045,0.09283 -0.236447,0.355892 -0.607785,0.629185 -1.057163,0.737276 -0.942277,0.226598 -1.87564,-0.338689 -2.102243,-1.280971 -0.226603,-0.942282 0.345945,-1.877389 1.288222,-2.103987 0.442147,-0.106325 0.902638,-0.04072 1.276794,0.176007 0.04498,0.02754 0.108165,0.03533 0.158913,0.02312 0.04353,-0.01046 0.07626,-0.03365 0.105515,-0.07138 l 0.292968,-0.407819 c 0.03476,-0.04672 0.04608,-0.0954 0.03386,-0.146159 -0.01046,-0.04353 -0.04094,-0.07448 -0.07861,-0.103786 -0.577191,-0.359584 -1.297519,-0.485384 -1.993354,-0.318048 z m 4.660531,-0.484325 -0.108548,4.851956 c -0.0024,0.104364 0.07783,0.188153 0.18214,0.19052 l 0.499353,0.01117 c 0.104364,0.0024 0.188153,-0.07782 0.19052,-0.18214 l 0.04034,-1.803641 c 0.0024,-0.104364 0.08616,-0.184494 0.190521,-0.18214 l 1.147772,0.02568 c 0.104364,0.0024 0.184494,0.08616 0.182135,0.190515 l -0.04035,1.803647 c -0.0024,0.104364 0.07782,0.188153 0.182134,0.190515 l 0.499358,0.01117 c 0.104364,0.0024 0.188154,-0.07783 0.190521,-0.18214 L 71.335935,47.3011 c 0.0024,-0.104364 -0.07783,-0.188153 -0.182135,-0.190514 l -0.499358,-0.01117 c -0.104364,-0.0024 -0.188153,0.07782 -0.190515,0.182135 l -0.04034,1.803652 c -0.0024,0.104358 -0.08616,0.184494 -0.190515,0.182135 L 69.08529,49.24166 c -0.104359,-0.0024 -0.184494,-0.08616 -0.18214,-0.19052 l 0.04035,-1.803647 c 0.0024,-0.104358 -0.07783,-0.188153 -0.182135,-0.190515 l -0.499358,-0.01117 c -0.104364,-0.0024 -0.188153,0.07783 -0.190515,0.182135 z m 5.451036,0.406723 -0.915432,4.766056 c -0.01968,0.102497 0.04538,0.198494 0.147868,0.218185 l 0.490515,0.09422 c 0.102496,0.01969 0.1985,-0.04538 0.21819,-0.147873 L 74.3791,47.799205 C 74.39879,47.696708 74.33372,47.600711 74.231232,47.58102 L 73.740717,47.4868 c -0.102496,-0.01969 -0.198493,0.04538 -0.218184,0.147868 z m 3.043217,0.668212 -1.718169,4.538851 c -0.03695,0.09761 0.01071,0.203339 0.10832,0.240287 l 0.467134,0.176828 c 0.09761,0.03695 0.203334,-0.01071 0.240287,-0.10832 l 0.564802,-1.492033 c 0.03695,-0.09761 0.142662,-0.14529 0.240288,-0.10832 l 0.467128,0.176833 0.158758,1.981159 c 0.0075,0.106452 0.07874,0.213147 0.190296,0.255374 l 0.550795,0.208502 c 0.06275,0.02372 0.130031,-0.0066 0.153793,-0.06932 0.0054,-0.01384 0.01322,-0.03485 0.01147,-0.05142 l -0.167026,-2.127772 c 0.51579,-0.03592 0.988836,-0.359034 1.181498,-0.867996 l 0.190029,-0.501992 c 0.263929,-0.69721 -0.09834,-1.48799 -0.795551,-1.751915 l -1.603583,-0.607033 c -0.09761,-0.03695 -0.203334,0.01071 -0.240288,0.10832 z m 0.747229,1.016212 0.787853,0.298238 c 0.257965,0.09766 0.386246,0.369427 0.288604,0.627378 l -0.190024,0.501998 c -0.09766,0.257965 -0.383337,0.381012 -0.641327,0.283325 l -0.780877,-0.295599 c -0.09761,-0.03695 -0.145291,-0.142661 -0.108326,-0.240283 l 0.40381,-1.066737 c 0.03695,-0.09761 0.142661,-0.145291 0.240287,-0.10832 z m 6.402528,2.48731 -4.296218,2.930403 c -0.01017,0.0019 -0.01909,0.01385 -0.03194,0.03225 -0.03903,0.05453 -0.02523,0.13777 0.02934,0.176811 l 0.454739,0.325313 c 0.09699,0.06942 0.21921,0.06515 0.305911,0.008 l 0.556649,-0.380915 c 0.08668,-0.05715 0.208899,-0.06138 0.299843,0.0037 l 1.218708,0.871833 c 0.09699,0.06942 0.132476,0.186403 0.106389,0.286932 l -0.180729,0.64983 c -0.02608,0.100497 0.0094,0.217533 0.106389,0.286932 l 0.448676,0.320971 c 0.06062,0.04342 0.143842,0.02957 0.182873,-0.025 0.01285,-0.0184 0.01561,-0.03464 0.02,-0.04074 l 1.379813,-5.016741 c 0.02608,-0.100492 -0.0094,-0.217523 -0.100326,-0.28259 l -0.194037,-0.138787 c -0.09093,-0.06507 -0.219204,-0.06515 -0.305911,-0.008 z m -0.637278,1.633983 -0.376234,1.371592 c 0.0019,0.01017 -0.007,0.02256 -0.01994,0.04069 -0.03903,0.05453 -0.122217,0.06841 -0.17681,0.02934 L 81.801907,54.37886 c -0.05453,-0.03903 -0.06835,-0.122261 -0.02934,-0.176816 0.01285,-0.0184 0.02166,-0.03031 0.03194,-0.03225 l 1.170521,-0.803378 c 0.02513,-0.0095 0.0563,-0.0147 0.08057,0.0026 0.02433,0.01728 0.0294,0.04855 0.0225,0.07106 z"
         id="text24-3"
         aria-label=" - PACHIRA - pachira - pachirA" />
    </g>
  </g>
</svg>
