<?xml version="1.0" encoding="UTF-8" standalone="no"?>
<!-- Created with Inkscape (http://www.inkscape.org/) -->

<svg
   width="128.05611mm"
   height="32.62141mm"
   viewBox="0 0 128.05611 32.621411"
   version="1.1"
   id="svg1"
   inkscape:version="1.3.2 (091e20e, 2023-11-25, custom)"
   sodipodi:docname="logo_pachira_horizontal.svg"
   xmlns:inkscape="http://www.inkscape.org/namespaces/inkscape"
   xmlns:sodipodi="http://sodipodi.sourceforge.net/DTD/sodipodi-0.dtd"
   xmlns="http://www.w3.org/2000/svg"
   xmlns:svg="http://www.w3.org/2000/svg"
   title="logo">
  <sodipodi:namedview
     id="namedview1"
     pagecolor="#ffffff"
     bordercolor="#666666"
     borderopacity="1.0"
     inkscape:showpageshadow="2"
     inkscape:pageopacity="0.0"
     inkscape:pagecheckerboard="0"
     inkscape:deskcolor="#d1d1d1"
     inkscape:document-units="mm"
     inkscape:zoom="0.74742565"
     inkscape:cx="242.16456"
     inkscape:cy="486.336"
     inkscape:window-width="1920"
     inkscape:window-height="1017"
     inkscape:window-x="-8"
     inkscape:window-y="-8"
     inkscape:window-maximized="1"
     inkscape:current-layer="layer1" />
  <defs
     id="defs1" />
  <g
     inkscape:label="Layer 1"
     inkscape:groupmode="layer"
     id="layer1"
     transform="translate(-40.971945,-13.623766)">
    <g
       id="logo"
       transform="translate(5.4225953,-0.18064146)">
      <path
         style="font-size:10.9361px;line-height:109%;font-family:'Nixie One';-inkscape-font-specification:'Nixie One';letter-spacing:0.529167px;word-spacing:0px;fill:#365a00;stroke-width:0.264583"
         d="m 83.913153,36.848154 q 0,-0.164042 -0.164042,-0.164042 h -0.874888 q -0.164041,0 -0.164041,-0.164041 0,-0.164042 0.164041,-0.164042 h 1.202971 q 0.164042,0 0.164042,0.164042 v 6.999104 q 0,0.164041 0.164041,0.164041 h 0.765527 q 0.164042,0 0.164042,0.164042 0,0.164041 -0.164042,0.164041 h -1.09361 q -0.164041,0 -0.164041,-0.164041 v -0.612422 q 0,-0.109361 -0.04374,-0.153105 -0.04374,-0.04375 -0.131233,0.04374 -0.273402,0.360891 -0.798335,0.678038 -0.535869,0.317147 -1.213907,0.317147 -0.546805,0 -0.995185,-0.19685 -0.437444,-0.196849 -0.754591,-0.557741 -0.317147,-0.371827 -0.492125,-0.907696 -0.164041,-0.546805 -0.164041,-1.235779 0,-0.623358 0.19685,-1.115483 0.207785,-0.50306 0.579613,-0.842079 0.382763,-0.349955 0.929568,-0.535869 0.546805,-0.185914 1.246716,-0.185914 h 1.476373 q 0.164042,0 0.164042,-0.164041 z m 0,2.18722 q 0,-0.164042 -0.164042,-0.164042 h -1.476373 q -1.246716,0 -1.93569,0.612422 -0.688974,0.612421 -0.688974,1.73884 0,1.246715 0.568677,1.913817 0.579613,0.656166 1.509182,0.656166 0.89676,0 1.629479,-0.732719 0.30621,-0.30621 0.557741,-0.743654 z m 6.893983,2.296581 q 0,-0.164042 -0.164042,-0.164042 h -1.804456 q -0.951441,0 -1.410757,0.371828 -0.44838,0.371827 -0.44838,0.940504 0,0.579613 0.415572,0.951441 0.426508,0.360891 1.224843,0.360891 0.89676,0 1.629479,-0.732719 0.153105,-0.153105 0.295274,-0.339019 0.14217,-0.185913 0.262467,-0.404635 z m -1.706032,-2.898067 q 0.918633,0 1.476374,0.524933 0.557741,0.513997 0.557741,1.279524 v 3.28083 q 0,0.164041 0.164041,0.164041 h 0.765527 q 0.164042,0 0.164042,0.164042 0,0.164041 -0.164042,0.164041 h -1.09361 q -0.164041,0 -0.164041,-0.164041 v -0.612422 q 0,-0.109361 -0.04375,-0.153105 -0.04374,-0.04375 -0.131233,0.04374 -0.295274,0.371827 -0.798335,0.678038 -0.546805,0.317147 -1.213907,0.317147 -0.481189,0 -0.853016,-0.120297 -0.360891,-0.131233 -0.612422,-0.349955 -0.25153,-0.218722 -0.382763,-0.513997 -0.120297,-0.306211 -0.120297,-0.656166 0,-0.339019 0.142169,-0.634294 0.153106,-0.30621 0.437444,-0.524932 0.284339,-0.218722 0.688974,-0.349956 0.404636,-0.131233 0.918633,-0.131233 h 1.804456 q 0.164042,0 0.164042,-0.164041 v -0.437444 q 0,-0.306211 -0.131233,-0.579614 -0.120297,-0.273402 -0.349956,-0.470252 -0.218722,-0.19685 -0.535868,-0.306211 -0.317147,-0.120297 -0.688975,-0.120297 -0.656166,0 -1.104546,0.19685 -0.44838,0.185914 -0.667102,0.360891 -0.142169,0.109361 -0.229658,-0.02187 -0.09843,-0.131233 0.02187,-0.218722 0.295275,-0.240594 0.787399,-0.437444 0.492125,-0.207786 1.192035,-0.207786 z m 6.784622,5.358689 q 0.415572,0 0.710846,-0.185914 0.306211,-0.185913 0.492125,-0.360891 0.06562,-0.06562 0.120297,-0.05468 0.05468,0 0.109361,0.05468 0.109361,0.120297 -0.02187,0.25153 -0.08749,0.08749 -0.218722,0.19685 -0.120297,0.109361 -0.306211,0.207786 -0.174978,0.08749 -0.404636,0.153106 -0.218722,0.06562 -0.481188,0.06562 -0.765527,0 -1.202971,-0.492124 -0.437444,-0.492125 -0.437444,-1.421693 v -3.171469 q 0,-0.164042 -0.164042,-0.164042 h -0.765527 q -0.164041,0 -0.164041,-0.164041 0,-0.164042 0.164041,-0.164042 h 0.765527 q 0.164042,0 0.164042,-0.164041 v -1.859137 q 0,-0.164042 0.164041,-0.164042 0.164042,0 0.164042,0.164042 v 1.859137 q 0,0.164041 0.164041,0.164041 h 1.859137 q 0.164042,0 0.164042,0.164042 0,0.164041 -0.164042,0.164041 h -1.859137 q -0.164041,0 -0.164041,0.164042 v 3.171469 q 0,0.787399 0.349955,1.192035 0.349955,0.393699 0.962377,0.393699 z m 6.642444,-2.460622 q 0,-0.164042 -0.16404,-0.164042 h -1.80446 q -0.951438,0 -1.410755,0.371828 -0.44838,0.371827 -0.44838,0.940504 0,0.579613 0.415572,0.951441 0.426508,0.360891 1.224843,0.360891 0.89676,0 1.62948,-0.732719 0.1531,-0.153105 0.29527,-0.339019 0.14217,-0.185913 0.26247,-0.404635 z m -1.70603,-2.898067 q 0.91863,0 1.47637,0.524933 0.55774,0.513997 0.55774,1.279524 v 3.28083 q 0,0.164041 0.16404,0.164041 h 0.76553 q 0.16404,0 0.16404,0.164042 0,0.164041 -0.16404,0.164041 h -1.09361 q -0.16404,0 -0.16404,-0.164041 v -0.612422 q 0,-0.109361 -0.0437,-0.153105 -0.0438,-0.04375 -0.13124,0.04374 -0.29527,0.371827 -0.79833,0.678038 -0.54681,0.317147 -1.21391,0.317147 -0.481188,0 -0.853015,-0.120297 -0.360892,-0.131233 -0.612422,-0.349955 -0.25153,-0.218722 -0.382764,-0.513997 -0.120297,-0.306211 -0.120297,-0.656166 0,-0.339019 0.14217,-0.634294 0.153105,-0.30621 0.437444,-0.524932 0.284338,-0.218722 0.688974,-0.349956 0.40464,-0.131233 0.91863,-0.131233 h 1.80446 q 0.16404,0 0.16404,-0.164041 v -0.437444 q 0,-0.306211 -0.13123,-0.579614 -0.1203,-0.273402 -0.34996,-0.470252 -0.21872,-0.19685 -0.53587,-0.306211 -0.31714,-0.120297 -0.68897,-0.120297 -0.65617,0 -1.104547,0.19685 -0.44838,0.185914 -0.667102,0.360891 -0.14217,0.109361 -0.229659,-0.02187 -0.09842,-0.131233 0.02187,-0.218722 0.295274,-0.240594 0.787399,-0.437444 0.492129,-0.207786 1.192039,-0.207786 z"
         id="text2-4-5-3-5-6-59-7-8-3-4-1-9-4-39"
         aria-label="data" />
      <path
         style="font-size:10.9361px;line-height:109%;font-family:'Nixie One';-inkscape-font-specification:'Nixie One';letter-spacing:0.529167px;word-spacing:0px;fill:#365a00;stroke-width:0.264583"
         d="m 130.01563,36.966089 q 0,-0.164042 -0.16404,-0.164042 h -0.87489 q -0.16404,0 -0.16404,-0.164041 0,-0.164042 0.16404,-0.164042 h 1.20297 q 0.16404,0 0.16404,0.164042 v 6.999104 q 0,0.164041 0.16405,0.164041 h 0.76552 q 0.16404,0 0.16404,0.164042 0,0.164041 -0.16404,0.164041 h -1.09361 q -0.16404,0 -0.16404,-0.164041 v -0.612422 q 0,-0.109361 -0.0437,-0.153105 -0.0437,-0.04375 -0.13124,0.04374 -0.2734,0.360892 -0.79833,0.678038 -0.53587,0.317147 -1.21391,0.317147 -0.5468,0 -0.99518,-0.196849 -0.43745,-0.19685 -0.7546,-0.557742 -0.31714,-0.371827 -0.49212,-0.907696 -0.16404,-0.546805 -0.16404,-1.235779 0,-0.623358 0.19685,-1.115482 0.20778,-0.503061 0.57961,-0.84208 0.38277,-0.349955 0.92957,-0.535869 0.54681,-0.185914 1.24672,-0.185914 h 1.47637 q 0.16404,0 0.16404,-0.164041 z m 0,2.18722 q 0,-0.164042 -0.16404,-0.164042 h -1.47637 q -1.24672,0 -1.93569,0.612422 -0.68898,0.612422 -0.68898,1.73884 0,1.246715 0.56868,1.913817 0.57961,0.656166 1.50918,0.656166 0.89676,0 1.62948,-0.732718 0.30621,-0.306211 0.55774,-0.743655 z m 5.42855,4.757203 q 0.4265,0 0.74365,-0.07655 0.32808,-0.08749 0.55774,-0.207786 0.2406,-0.120297 0.40464,-0.251531 0.17498,-0.142169 0.29527,-0.25153 0.0766,-0.06562 0.13124,-0.03281 0.0547,0.02187 0.10936,0.07655 0.10936,0.131233 -0.0109,0.229658 -0.14217,0.131233 -0.34995,0.284338 -0.19685,0.14217 -0.47026,0.273403 -0.26246,0.120297 -0.61242,0.19685 -0.34995,0.08749 -0.79833,0.08749 -1.15923,0 -1.85914,-0.787399 -0.71085,-0.809271 -0.71085,-2.055987 0,-1.246715 0.71085,-2.055986 0.69991,-0.7874 1.85914,-0.7874 1.12641,0 1.8482,0.721783 0.72178,0.721783 0.72178,1.73884 v 0.164041 q 0,0.328083 -0.32808,0.328083 h -4.30883 q -0.18591,0 -0.16404,0.164042 0.0656,0.951441 0.61242,1.563862 0.62336,0.678038 1.61855,0.678038 z m -2.22003,-2.898066 q -0.0219,0.164041 0.1531,0.164041 h 4.14479 q 0.16404,0 0.16404,-0.164041 0,-0.874888 -0.64523,-1.498246 -0.6343,-0.634294 -1.59667,-0.634294 -0.99519,0 -1.61855,0.699911 -0.51399,0.579613 -0.60148,1.432629 z m 8.98276,2.898066 q 0.95144,0 1.45451,-0.328083 0.51399,-0.339019 0.51399,-0.874888 0,-0.284338 -0.13123,-0.459316 -0.1203,-0.174977 -0.33902,-0.295275 -0.24059,-0.131233 -0.56868,-0.207785 -0.32808,-0.07655 -0.69991,-0.131234 -0.37183,-0.06562 -0.75459,-0.120297 -0.38276,-0.05468 -0.72178,-0.142169 -0.26247,-0.07655 -0.50306,-0.174978 -0.22966,-0.109361 -0.40464,-0.273402 -0.16404,-0.164042 -0.26246,-0.382764 -0.0984,-0.229658 -0.0984,-0.546805 0,-0.262466 0.14217,-0.513996 0.14217,-0.262467 0.41557,-0.459317 0.28434,-0.207785 0.68898,-0.328083 0.40463,-0.120297 0.9405,-0.120297 0.34996,0 0.64523,0.08749 0.30621,0.08749 0.54681,0.218722 0.25153,0.131233 0.4265,0.273403 0.18592,0.142169 0.28434,0.240594 0.0984,0.109361 0.13124,0.04374 0.0437,-0.06562 0.0437,-0.153105 v -0.437444 q 0,-0.164042 0.16404,-0.164042 0.16404,0 0.16404,0.164042 v 1.749776 q 0,0.164041 -0.16404,0.164041 -0.16404,0 -0.16404,-0.164041 v -0.546805 q -0.24059,-0.317147 -0.5468,-0.568677 -0.27341,-0.218722 -0.65617,-0.3937 -0.38276,-0.185914 -0.87489,-0.185914 -0.47025,0 -0.82021,0.09842 -0.34995,0.08749 -0.57961,0.240594 -0.22966,0.153106 -0.34995,0.349956 -0.10937,0.196849 -0.10937,0.404635 0,0.295275 0.10937,0.492125 0.12029,0.185914 0.32808,0.317147 0.24059,0.153105 0.56868,0.25153 0.32808,0.08749 0.69991,0.153105 0.37182,0.05468 0.75459,0.109361 0.38276,0.05468 0.73272,0.131234 0.2734,0.06562 0.50306,0.164041 0.24059,0.09842 0.41557,0.25153 0.17498,0.14217 0.2734,0.360892 0.0984,0.207786 0.0984,0.50306 0,0.656166 -0.57962,1.09361 -0.56868,0.437444 -1.71697,0.437444 -0.32808,0 -0.63429,-0.07655 -0.29527,-0.07655 -0.55774,-0.185914 -0.25153,-0.120297 -0.47025,-0.262466 -0.20779,-0.153106 -0.34996,-0.295275 -0.10936,-0.109361 -0.14217,-0.04375 -0.0328,0.06562 -0.0328,0.153106 v 0.437444 q 0,0.164041 -0.16404,0.164041 -0.16404,0 -0.16404,-0.164041 v -1.749776 q 0,-0.164042 0.16404,-0.164042 0.16404,0 0.16404,0.164042 v 0.546805 q 0.22966,0.328083 0.54681,0.579613 0.2734,0.218722 0.67804,0.3937 0.40463,0.174977 0.96237,0.174977 z m 3.98499,0.218722 q -0.16404,0 -0.16404,-0.164041 0,-0.164042 0.16404,-0.164042 h 0.76552 q 0.16405,0 0.16405,-0.164041 v -4.483801 q 0,-0.164042 -0.16405,-0.164042 h -0.76552 q -0.16404,0 -0.16404,-0.164041 0,-0.164042 0.16404,-0.164042 h 1.09361 q 0.16404,0 0.16404,0.164042 v 4.811884 q 0,0.164041 0.16404,0.164041 h 0.76553 q 0.16404,0 0.16404,0.164042 0,0.164041 -0.16404,0.164041 z m 0.72178,-6.463235 q -0.1203,-0.131233 -0.1203,-0.317147 0,-0.185913 0.1203,-0.30621 0.13123,-0.131234 0.31715,-0.131234 0.18591,0 0.30621,0.131234 0.13123,0.120297 0.13123,0.30621 0,0.185914 -0.13123,0.317147 -0.1203,0.120297 -0.30621,0.120297 -0.18592,0 -0.31715,-0.120297 z m 5.48321,5.697708 q -0.67803,0 -1.15922,0.09842 -0.47025,0.09843 -0.77647,0.284339 -0.30621,0.174977 -0.44838,0.426508 -0.13123,0.25153 -0.13123,0.557741 0,0.284338 0.1203,0.535869 0.13123,0.25153 0.41557,0.437444 0.29527,0.185913 0.77646,0.284338 0.48119,0.109361 1.20297,0.109361 0.72179,0 1.20298,-0.109361 0.48118,-0.09842 0.76552,-0.284338 0.29528,-0.185914 0.41557,-0.437444 0.13124,-0.251531 0.13124,-0.535869 0,-0.284339 -0.13124,-0.535869 -0.12029,-0.25153 -0.41557,-0.437444 -0.28434,-0.185914 -0.76552,-0.284339 -0.48119,-0.109361 -1.20298,-0.109361 z m 0,-1.312332 q 1.10455,0 1.58574,-0.415571 0.49212,-0.426508 0.49212,-1.170163 0,-0.732719 -0.49212,-1.159227 -0.48119,-0.426508 -1.58574,-0.426508 -1.10454,0 -1.59667,0.426508 -0.48118,0.426508 -0.48118,1.159227 0,0.743655 0.48118,1.170163 0.49213,0.415571 1.59667,0.415571 z m -2.02317,1.388885 q 0.0765,-0.03281 0.0765,-0.08749 0,-0.06562 -0.0765,-0.08749 -0.20779,-0.07655 -0.38277,-0.240594 -0.16404,-0.174977 -0.16404,-0.415572 0,-0.295274 0.18591,-0.459316 0.19685,-0.164041 0.3937,-0.25153 0.14217,-0.07655 0,-0.229658 -0.17497,-0.19685 -0.29527,-0.481189 -0.1203,-0.284338 -0.1203,-0.721782 0,-0.863952 0.60149,-1.388885 0.61242,-0.524933 1.80445,-0.524933 1.01706,0 1.64042,0.404636 0.0984,-0.09842 0.22966,-0.174978 0.12029,-0.06562 0.2734,-0.120297 0.16404,-0.05468 0.37183,-0.05468 h 0.71084 q 0.16405,0 0.16405,0.164041 v 1.257652 q 0,0.164041 -0.16405,0.164041 -0.16404,0 -0.16404,-0.164041 v -0.984249 q 0,-0.164042 -0.16404,-0.164042 h -0.38276 q -0.1203,0 -0.21872,0.03281 -0.0875,0.02187 -0.15311,0.04374 -0.0765,0.03281 -0.14217,0.06562 -0.13123,0.131233 -0.0109,0.240594 0.17498,0.207786 0.29528,0.524933 0.1203,0.30621 0.1203,0.678038 0,0.863952 -0.61243,1.388885 -0.60148,0.524932 -1.79352,0.524932 -0.51399,0 -0.90769,-0.09842 -0.3937,-0.09842 -0.6343,-0.25153 -0.31714,0.08749 -0.51399,0.207786 -0.18592,0.120297 -0.18592,0.371827 0,0.19685 0.20779,0.317147 0.20779,0.109361 0.6671,0.109361 h 1.36701 q 0.77647,0 1.31234,0.131234 0.5468,0.120297 0.88582,0.349955 0.33902,0.218722 0.49212,0.535869 0.15311,0.30621 0.15311,0.678038 0,0.371827 -0.15311,0.678038 -0.1531,0.317147 -0.49212,0.535869 -0.33902,0.229658 -0.88582,0.349955 -0.53587,0.131233 -1.31234,0.131233 -0.77646,0 -1.32326,-0.131233 -0.53587,-0.120297 -0.87489,-0.349955 -0.33902,-0.218722 -0.49213,-0.535869 -0.1531,-0.306211 -0.1531,-0.678038 0,-0.371828 0.20778,-0.732719 0.21873,-0.360891 0.61243,-0.557741 z m 6.60963,0.360891 h 0.76553 q 0.16404,0 0.16404,-0.164041 v -4.483801 q 0,-0.164042 -0.16404,-0.164042 h -0.76553 q -0.16404,0 -0.16404,-0.164041 0,-0.164042 0.16404,-0.164042 h 1.09361 q 0.16404,0 0.16404,0.164042 v 0.612421 q 0,0.109361 0.0437,0.153106 0.0437,0.04374 0.13124,-0.04375 0.88582,-0.995185 1.95756,-0.995185 1.00612,0 1.56386,0.568678 0.56868,0.557741 0.56868,1.618542 v 2.898067 q 0,0.164041 0.16404,0.164041 h 0.76553 q 0.16404,0 0.16404,0.164042 0,0.164041 -0.16404,0.164041 h -2.07786 q -0.16404,0 -0.16404,-0.164041 0,-0.164042 0.16404,-0.164042 h 0.65616 q 0.16405,0 0.16405,-0.164041 v -2.898067 q 0,-0.929568 -0.48119,-1.388884 -0.48119,-0.470253 -1.32327,-0.470253 -0.82021,0 -1.56386,0.743655 -0.32809,0.328083 -0.56868,0.732719 v 3.28083 q 0,0.164041 0.16404,0.164041 h 0.65617 q 0.16404,0 0.16404,0.164042 0,0.164041 -0.16404,0.164041 h -2.07786 q -0.16404,0 -0.16404,-0.164041 0,-0.164042 0.16404,-0.164042 z"
         id="text2-4-5-3-5-6-5-8-0-2-6-6-8-1-1-2"
         aria-label="design" />
      <path
         style="font-size:10.9361px;line-height:109%;font-family:'Nixie One';-inkscape-font-specification:'Nixie One';letter-spacing:0px;word-spacing:0px;fill:#365a00;stroke-width:0.264583"
         d="m 111.47534,42.050005 q 0,0.776463 0.50306,1.268587 0.51399,0.481189 1.30139,0.481189 1.4217,0 2.39501,-1.213908 0.0656,-0.07655 0.0656,-0.142169 0,-0.05468 -0.0547,-0.109361 l -1.90288,-2.143475 q -0.0437,-0.07655 -0.16404,-0.07655 -0.0219,0 -0.10936,0.02187 -2.03411,0.546805 -2.03411,1.913818 z m 2.89806,-5.905494 q 0.62336,0 1.11548,0.295274 0.50307,0.295275 0.7874,0.754591 0.0766,0.120297 -0.0765,0.207786 -0.1203,0.07655 -0.22966,-0.06562 -0.31714,-0.404635 -0.68897,-0.634293 -0.37183,-0.229658 -0.9077,-0.229658 -0.75459,0 -1.20297,0.382763 -0.43744,0.371827 -0.43744,0.929569 0,0.120297 0.0219,0.273402 0.0328,0.153105 0.1203,0.360891 0.0875,0.19685 0.25153,0.44838 0.16404,0.251531 0.43744,0.557742 l 2.31845,2.624664 q 0.0984,0.109361 0.17498,0 l 1.29046,-1.946626 q 0.0984,-0.120297 0.22966,-0.03281 0.14217,0.08749 0.0328,0.229659 l -1.32327,1.979434 q -0.0875,0.120297 0.0219,0.240594 l 0.7874,0.89676 q 0.14217,0.164042 0.2734,0.164042 h 0.72179 q 0.16404,0 0.16404,0.164041 0,0.164042 -0.16404,0.164042 h -0.87489 q -0.14217,0 -0.28434,-0.164042 l -0.82021,-0.929568 q -0.12029,-0.109361 -0.19685,0 -1.03893,1.312332 -2.6356,1.312332 -0.92957,0 -1.53105,-0.568678 -0.60149,-0.568677 -0.60149,-1.509181 0,-0.831144 0.55774,-1.377949 0.55775,-0.557741 1.58574,-0.798335 0.16404,-0.05468 0.0109,-0.229658 -0.38276,-0.459317 -0.64523,-0.896761 -0.25153,-0.44838 -0.25153,-0.962376 0,-0.754591 0.52494,-1.192035 0.52493,-0.44838 1.44356,-0.44838 z"
         id="text2-4-5-3-5-6-7-7-1-2-8-7-9-5-8-3"
         aria-label="&amp;" />
      <path
         style="font-size:25.4px;line-height:109%;font-family:Bontang;-inkscape-font-specification:Bontang;letter-spacing:0px;word-spacing:0px;fill:#365a00;stroke-width:0.264583"
         d="m 79.328291,15.536044 v 16.5354 c 0,0.3556 0.2794,0.635 0.635,0.635 h 1.7018 c 0.3556,0 0.635,-0.2794 0.635,-0.635 v -5.4356 c 0,-0.3556 0.2794,-0.635 0.635,-0.635 h 2.8448 c 2.54,0 4.6736,-2.1082 4.6736,-4.6482 v -1.8288 c 0,-2.54 -2.1082,-4.6228 -4.6482,-4.6228 h -5.842 c -0.3556,0 -0.635,0.2794 -0.635,0.635 z m 3.6068,2.3368 h 2.8702 c 0.9398,0 1.6764,0.7112 1.6764,1.651 v 1.8288 c 0,0.9398 -0.762,1.6764 -1.7018,1.6764 h -2.8448 c -0.3556,0 -0.635,-0.2794 -0.635,-0.635 v -3.8862 c 0,-0.3556 0.2794,-0.635 0.635,-0.635 z m 11.531602,-2.3876 -6.096,16.637 c -0.0254,0.0254 -0.0254,0.0762 -0.0254,0.1524 0,0.2286 0.2032,0.4318 0.4318,0.4318 h 1.905 c 0.4064,0 0.7366,-0.254 0.8636,-0.5842 l 0.7874,-2.159 c 0.127,-0.3302 0.4572,-0.5842 0.8382,-0.5842 h 5.1054 c 0.4064,0 0.7366,0.254 0.8636,0.5842 l 0.7874,2.159 c 0.126997,0.3302 0.457197,0.5842 0.863597,0.5842 h 1.8796 c 0.254,0 0.4572,-0.2032 0.4572,-0.4318 0,-0.0762 -0.0254,-0.127 -0.0254,-0.1524 l -6.121397,-16.637 c -0.127,-0.3302 -0.4572,-0.5842 -0.8382,-0.5842 h -0.8128 c -0.381,0 -0.7366,0.254 -0.8636,0.5842 z m 1.4732,5.7912 1.6764,4.5466 c 0.0254,0.0254 0.0254,0.0762 0.0254,0.1524 0,0.2286 -0.2032,0.4318 -0.4318,0.4318 h -2.9464 c -0.2286,0 -0.4318,-0.2032 -0.4318,-0.4318 0,-0.0762 0,-0.127 0.0254,-0.1524 l 1.651,-4.5466 c 0.0508,-0.0762 0.127,-0.1524 0.2286,-0.1524 0.1016,0 0.1778,0.0762 0.2032,0.1524 z m 14.985987,-6.3754 c -4.9022,0 -8.9154,4.0132 -8.9154,8.9154 0,4.9022 4.0132,8.89 8.9154,8.89 2.4638,0 4.7244,-1.016 6.35,-2.6416 0.1016,-0.127 0.1778,-0.254 0.1778,-0.4064 0,-0.1778 -0.0762,-0.3302 -0.2286,-0.4572 l -1.2954,-1.1176 c -0.127,-0.1016 -0.254,-0.1524 -0.4064,-0.1524 -0.1778,0 -0.381,0.0762 -0.508,0.2032 -1.0668,0.9906 -2.5146,1.6002 -4.0894,1.6002 -3.302,0 -5.9436,-2.6162 -5.9436,-5.9182 0,-3.302 2.6416,-5.9436 5.9436,-5.9436 1.5494,0 3.0226,0.5842 4.0894,1.6002 0.127,0.127 0.3302,0.2032 0.508,0.2032 0.1524,0 0.2794,-0.0508 0.4064,-0.1524 l 1.2954,-1.1176 c 0.1524,-0.127 0.2286,-0.2794 0.2286,-0.4572 0,-0.1524 -0.0762,-0.2794 -0.1778,-0.4064 -1.6256,-1.651 -3.9116,-2.6416 -6.35,-2.6416 z m 8.05178,0.635 v 16.5354 c 0,0.3556 0.2794,0.635 0.635,0.635 h 1.7018 c 0.3556,0 0.635,-0.2794 0.635,-0.635 v -6.1468 c 0,-0.3556 0.2794,-0.635 0.635,-0.635 h 3.9116 c 0.3556,0 0.635,0.2794 0.635,0.635 v 6.1468 c 0,0.3556 0.2794,0.635 0.635,0.635 h 1.7018 c 0.3556,0 0.635,-0.2794 0.635,-0.635 v -16.5354 c 0,-0.3556 -0.2794,-0.635 -0.635,-0.635 h -1.7018 c -0.3556,0 -0.635,0.2794 -0.635,0.635 v 6.1468 c 0,0.3556 -0.2794,0.635 -0.635,0.635 h -3.9116 c -0.3556,0 -0.635,-0.2794 -0.635,-0.635 v -6.1468 c 0,-0.3556 -0.2794,-0.635 -0.635,-0.635 h -1.7018 c -0.3556,0 -0.635,0.2794 -0.635,0.635 z m 12.36979,0 v 16.5354 c 0,0.3556 0.2794,0.635 0.635,0.635 h 1.7018 c 0.3556,0 0.635,-0.2794 0.635,-0.635 v -16.5354 c 0,-0.3556 -0.2794,-0.635 -0.635,-0.635 h -1.7018 c -0.3556,0 -0.635,0.2794 -0.635,0.635 z m 4.24179,0 v 16.5354 c 0,0.3556 0.2794,0.635 0.635,0.635 h 1.7018 c 0.3556,0 0.635,-0.2794 0.635,-0.635 v -5.4356 c 0,-0.3556 0.2794,-0.635 0.635,-0.635 h 1.7018 l 2.8956,6.1214 c 0.1524,0.3302 0.508,0.5842 0.9144,0.5842 h 2.0066 c 0.2286,0 0.4064,-0.1778 0.4064,-0.4064 0,-0.0508 0,-0.127 -0.0254,-0.1778 l -3.0988,-6.5786 c 1.6002,-0.7366 2.7178,-2.3368 2.7178,-4.191 v -1.8288 c 0,-2.54 -2.1082,-4.6228 -4.6482,-4.6228 h -5.842 c -0.3556,0 -0.635,0.2794 -0.635,0.635 z m 3.6068,2.3368 h 2.8702 c 0.9398,0 1.6764,0.7112 1.6764,1.651 v 1.8288 c 0,0.9398 -0.762,1.6764 -1.7018,1.6764 h -2.8448 c -0.3556,0 -0.635,-0.2794 -0.635,-0.635 v -3.8862 c 0,-0.3556 0.2794,-0.635 0.635,-0.635 z m 15.74802,-2.3876 -6.096,16.637 c -0.0254,0.0254 -0.0254,0.0762 -0.0254,0.1524 0,0.2286 0.2032,0.4318 0.4318,0.4318 h 1.905 c 0.4064,0 0.7366,-0.254 0.8636,-0.5842 l 0.7874,-2.159 c 0.127,-0.3302 0.4572,-0.5842 0.8382,-0.5842 h 5.1054 c 0.4064,0 0.7366,0.254 0.8636,0.5842 l 0.7874,2.159 c 0.127,0.3302 0.4572,0.5842 0.8636,0.5842 h 1.8796 c 0.254,0 0.4572,-0.2032 0.4572,-0.4318 0,-0.0762 -0.0254,-0.127 -0.0254,-0.1524 l -6.1214,-16.637 c -0.127,-0.3302 -0.4572,-0.5842 -0.8382,-0.5842 h -0.8128 c -0.381,0 -0.7366,0.254 -0.8636,0.5842 z m 1.4732,5.7912 1.6764,4.5466 c 0.0254,0.0254 0.0254,0.0762 0.0254,0.1524 0,0.2286 -0.2032,0.4318 -0.4318,0.4318 h -2.9464 c -0.2286,0 -0.4318,-0.2032 -0.4318,-0.4318 0,-0.0762 0,-0.127 0.0254,-0.1524 l 1.651,-4.5466 c 0.0508,-0.0762 0.127,-0.1524 0.2286,-0.1524 0.1016,0 0.1778,0.0762 0.2032,0.1524 z"
         id="text1-84-6-1-7-5-6-7-2-3-5-8-3-1"
         aria-label="PACHIRA" />
      <path
         id="rect7-4-7-2-4-4-3-1-7-5-4-9-8-5-5-7-2-8-5"
         style="display:inline;fill:#365a00;fill-opacity:1;stroke-width:2.53482;stroke-linecap:round"
         d="m 54.349751,13.804495 c -0.620299,0 -1.898767,0.0047 -1.944443,0.623753 -0.05824,0.789637 0.21581,9.273634 0.448866,16.113093 -2.398299,-6.420266 -5.392214,-14.379802 -5.762041,-15.054733 -0.298045,-0.543993 -1.307875,-0.133138 -1.880952,0.104282 -0.573078,0.237381 -1.751647,0.731012 -1.557095,1.320036 0.280316,0.848612 4.066381,9.190269 6.960312,15.545052 -4.774133,-5.128223 -11.675385,-12.51416 -12.331125,-13.041002 -0.483538,-0.388525 -1.259676,0.377501 -1.698287,0.816112 -0.43862,0.438612 -1.338515,1.345801 -0.933361,1.815536 0.823094,0.954269 15.892046,14.979621 17.19219,16.189523 0.02979,0.03709 0.133423,0.142321 0.173388,0.182665 0.02798,0.02817 0.153277,0.125521 0.188698,0.152367 0.03301,0.02504 0.2173,0.141059 0.275431,0.167525 0.05749,0.02618 0.192948,0.08158 0.220913,0.09135 0.02798,0.01006 0.08263,0.02779 0.195301,0.0553 0.08784,0.02134 0.322454,0.04961 0.38251,0.05018 0.0554,4.46e-4 0.266428,8.44e-4 0.43956,-0.04013 0.116433,-0.02761 0.183092,-0.04221 0.24739,-0.06546 0.08424,-0.03036 0.286756,-0.124581 0.325564,-0.147386 0.04288,-0.02523 0.175874,-0.114185 0.199466,-0.132247 0,0 0.08177,-0.0628 0.111927,-0.08908 0.04326,-0.03775 0.160695,-0.14989 0.158485,-0.155857 C 56.909381,37.238077 72.209264,23.00607 73.036902,22.046536 73.442065,21.5768 72.542161,20.669611 72.10355,20.231 71.664939,19.792389 70.888782,19.026373 70.405244,19.414887 69.738719,19.9504 62.605474,27.587739 57.83319,32.714966 c 2.88305,-6.329625 6.792891,-14.941098 7.078177,-15.804774 0.194552,-0.589033 -0.984017,-1.082664 -1.557095,-1.320045 -0.573077,-0.23742 -1.582906,-0.648265 -1.880952,-0.104282 -0.37107,0.677207 -3.384336,8.687229 -5.785993,15.116934 0.241641,-6.858564 0.523436,-15.407181 0.439788,-16.17464 -0.06716,-0.616628 -1.157026,-0.623752 -1.777316,-0.623752 z"
         sodipodi:nodetypes="sccssscssscssssssssssscssscssscss" />
      <path
         style="display:inline;fill:#365a00;fill-opacity:1;stroke:none;stroke-width:0.250987px;stroke-linecap:butt;stroke-linejoin:miter;stroke-opacity:1"
         d="m 37.955071,35.734497 c 0.576104,-0.363585 8.507504,-0.0868 8.778097,0 0.395458,0.126877 4.533565,4.549872 4.841077,4.841096 0.216266,0.204816 5.347724,0.165553 5.599325,0 0.347497,-0.228644 4.512638,-4.662899 4.811908,-4.811936 0.434408,-0.216341 8.437619,-0.38324 8.807266,0 0.344935,0.357619 0.315111,7.214314 0,7.611585 -0.335497,0.422978 -5.471366,0.264312 -5.628485,0 -0.180645,-0.303889 -0.259722,-2.632635 0,-2.857979 0.21286,-0.184686 2.529245,0.190235 2.770497,0 0.262899,-0.20731 0.03946,-1.648921 0,-1.924769 -0.04278,-0.299221 -4.299674,-0.148505 -4.724426,0 -0.263934,0.0923 -4.455276,4.657635 -4.841078,4.841078 -0.293568,0.139589 -7.52638,0.143497 -7.932368,0 -0.388192,-0.137208 -4.674766,-4.758899 -4.841078,-4.841078 -0.325583,-0.160875 -4.811917,-0.359734 -4.811917,0 0,0 -0.252986,1.743024 0,1.953939 0.284879,0.237505 2.554754,-0.07712 2.799667,0 0.272566,0.08585 0.25864,2.523895 0,2.857969 -0.182523,0.235769 -5.26932,0.351272 -5.686815,0 -0.403712,-0.33968 -0.320347,-7.430911 0.05834,-7.669905 z"
         id="path15-1-0-0-5-5-8-6-8"
         sodipodi:nodetypes="ssssssssssssssssssssss" />
    </g>
  </g>
</svg>
