<?xml version="1.0" encoding="UTF-8" standalone="no"?>
<!-- Created with Inkscape (http://www.inkscape.org/) -->

<svg
   width="74.844208mm"
   height="74.844208mm"
   viewBox="0 0 74.844209 74.844209"
   version="1.1"
   id="svg1"
   inkscape:version="1.3.2 (091e20e, 2023-11-25, custom)"
   sodipodi:docname="logo_pachira_horizontal.svg"
   xmlns:inkscape="http://www.inkscape.org/namespaces/inkscape"
   xmlns:sodipodi="http://sodipodi.sourceforge.net/DTD/sodipodi-0.dtd"
   xmlns="http://www.w3.org/2000/svg"
   xmlns:svg="http://www.w3.org/2000/svg">
  <sodipodi:namedview
     id="namedview1"
     pagecolor="#ffffff"
     bordercolor="#666666"
     borderopacity="1.0"
     inkscape:showpageshadow="2"
     inkscape:pageopacity="0.0"
     inkscape:pagecheckerboard="true"
     inkscape:deskcolor="#d1d1d1"
     inkscape:document-units="mm"
     inkscape:zoom="2.1273152"
     inkscape:cx="142.19801"
     inkscape:cy="115.87375"
     inkscape:window-width="1920"
     inkscape:window-height="1017"
     inkscape:window-x="1912"
     inkscape:window-y="-8"
     inkscape:window-maximized="1"
     inkscape:current-layer="layer1"
     showguides="true" />
  <defs
     id="defs1" />
  <g
     inkscape:label="Layer 1"
     inkscape:groupmode="layer"
     id="layer1"
     transform="translate(-57.169083,8.5202692)">
    <g
       id="g8"
       transform="matrix(3.375,0,0,3.375,-230.79964,36.344894)">
      <rect
         style="fill:#ffffff;stroke-width:0.496576;stroke-linecap:round;stroke-linejoin:round"
         id="rect6"
         width="22.176062"
         height="22.176062"
         x="85.324066"
         y="-13.293382"
         ry="2.7528901" />
      <g
         id="g7">
        <path
           style="font-size:25.4px;line-height:109%;font-family:Bontang;-inkscape-font-specification:Bontang;letter-spacing:0px;word-spacing:0px;fill:#365a00;stroke-width:0.264583"
           d="M 90.849493,-10.473051 V 6.0623489 c 0,0.3556 0.2794,0.635 0.635,0.635 h 1.7018 c 0.3556,0 0.635,-0.2794 0.635,-0.635 V 0.62674883 c 0,-0.3556 0.2794,-0.635 0.635,-0.635 h 2.8448 c 2.539997,0 4.673607,-2.10819993 4.673607,-4.64819993 v -1.8288 c 0,-2.5399996 -2.10821,-4.6227999 -4.648207,-4.6227999 h -5.842 c -0.3556,0 -0.635,0.2794 -0.635,0.635 z m 3.6068,2.3368003 h 2.8702 c 0.9398,0 1.6764,0.7112 1.6764,1.6509996 v 1.8288 c 0,0.9398 -0.762,1.6764 -1.7018,1.6764 h -2.8448 c -0.3556,0 -0.635,-0.2794 -0.635,-0.635 v -3.8861996 c 0,-0.3556 0.2794,-0.635 0.635,-0.635 z"
           id="text1-84-6-1-7-5-6-7-2-3-5-8-3-1" />
        <circle
           style="fill:#365a00;fill-opacity:1;stroke-width:1.05516;stroke-linecap:round;stroke-linejoin:round"
           id="path6"
           cx="100.7247"
           cy="5.4473491"
           r="1.25" />
      </g>
    </g>
  </g>
</svg>
