<?xml version="1.0" encoding="UTF-8" standalone="no"?>
<svg
   viewBox="0 0 14.586293 23.672451"
   preserveAspectRatio="xMidYMid"
   focusable="false"
   style="display:block"
   width="593.78369"
   height="593.784"
   version="1.1"
   id="svg5"
   sodipodi:docname="Google_Colaboratory_SVG_Logo.svg"
   inkscape:version="1.3.2 (091e20e, 2023-11-25, custom)"
   xmlns:inkscape="http://www.inkscape.org/namespaces/inkscape"
   xmlns:sodipodi="http://sodipodi.sourceforge.net/DTD/sodipodi-0.dtd"
   xmlns="http://www.w3.org/2000/svg"
   xmlns:svg="http://www.w3.org/2000/svg">
  <defs
     id="defs5" />
  <sodipodi:namedview
     id="namedview5"
     pagecolor="#ffffff"
     bordercolor="#666666"
     borderopacity="1.0"
     inkscape:showpageshadow="2"
     inkscape:pageopacity="0.0"
     inkscape:pagecheckerboard="true"
     inkscape:deskcolor="#d1d1d1"
     inkscape:zoom="0.82497441"
     inkscape:cx="370.9206"
     inkscape:cy="173.94479"
     inkscape:window-width="1920"
     inkscape:window-height="1017"
     inkscape:window-x="-8"
     inkscape:window-y="-8"
     inkscape:window-maximized="1"
     inkscape:current-layer="svg5" />
  <g
     id="g5"
     transform="translate(-4.7085673,-0.16298865)">
    <path
       d="M 4.54,9.46 2.19,7.1 a 6.93,6.93 0 0 0 0,9.79 L 4.55,14.53 A 3.59,3.59 0 0 1 4.54,9.46 Z"
       fill="#e8710a"
       id="path1" />
    <path
       d="m 2.19,7.1 2.35,2.36 a 3.59,3.59 0 0 1 5.08,0 l 1.71,-2.93 v 0 l -0.1,-0.08 v 0 A 6.93,6.93 0 0 0 2.19,7.1 Z"
       fill="#f9ab00"
       id="path2" />
    <path
       d="m 11.34,17.46 v 0 L 9.62,14.54 a 3.59,3.59 0 0 1 -5.08,0 L 2.19,16.9 a 6.93,6.93 0 0 0 9,0.65 l 0.11,-0.09"
       fill="#f9ab00"
       id="path3" />
    <path
       d="m 12,7.1 a 6.93,6.93 0 0 0 0,9.79 l 2.36,-2.36 A 3.5921024,3.5921024 0 1 1 19.44,9.45 L 21.81,7.1 A 6.93,6.93 0 0 0 12,7.1 Z"
       fill="#f9ab00"
       id="path4" />
    <path
       d="m 21.81,7.1 -2.35,2.36 a 3.5921024,3.5921024 0 0 1 -5.08,5.08 L 12,16.9 a 6.9331829,6.9331829 0 0 0 9.81,-9.8 z"
       fill="#e8710a"
       id="path5" />
  </g>
</svg>
