<?xml version="1.0" encoding="UTF-8" standalone="no"?>
<!-- Generator: Adobe Illustrator 19.1.1, SVG Export Plug-In . SVG Version: 6.00 Build 0)  -->

<svg
   version="1.1"
   x="0px"
   y="0px"
   viewBox="0 0 41.150002 36"
   enable-background="new 0 0 48 48"
   xml:space="preserve"
   id="svg3"
   sodipodi:docname="google-compute-engine-seeklogo.svg"
   width="41.150002"
   height="36"
   inkscape:version="1.3.2 (091e20e, 2023-11-25, custom)"
   xmlns:inkscape="http://www.inkscape.org/namespaces/inkscape"
   xmlns:sodipodi="http://sodipodi.sourceforge.net/DTD/sodipodi-0.dtd"
   xmlns="http://www.w3.org/2000/svg"
   xmlns:svg="http://www.w3.org/2000/svg"><defs
   id="defs3" /><sodipodi:namedview
   id="namedview3"
   pagecolor="#ffffff"
   bordercolor="#666666"
   borderopacity="1.0"
   inkscape:showpageshadow="2"
   inkscape:pageopacity="0.0"
   inkscape:pagecheckerboard="true"
   inkscape:deskcolor="#d1d1d1"
   inkscape:zoom="16.791667"
   inkscape:cx="20.545906"
   inkscape:cy="17.955335"
   inkscape:window-width="1920"
   inkscape:window-height="1017"
   inkscape:window-x="1912"
   inkscape:window-y="-8"
   inkscape:window-maximized="1"
   inkscape:current-layer="svg3" />
<path
   fill="#2196f3"
   d="M 40.775,16.7 31.275,1.2 C 30.875,0.5 29.975,0 29.075,0 h -17.1 c -0.9,0 -1.7,0.5 -2.2,1.2 l -9.4,15.5 c -0.5,0.8 -0.5,1.9 0,2.7 l 9.4,15.4 c 0.5,0.8 1.3,1.2 2.2,1.2 h 17.1 c 0.9,0 1.7,-0.5 2.2,-1.2 l 9.5,-15.4 c 0.5,-0.9 0.5,-1.9 0,-2.7 z"
   id="path1" />
<path
   fill="#1976d2"
   d="m 25.575,9 -2,2 -2,-2 -2,2 -2,-2 -2,4 -4,2 2,2 -2,2 2,2 -2,2 13,13 h 4.5 c 0.9,0 1.7,-0.5 2.2,-1.2 l 7.6,-12.4 z"
   id="path2" />
<g
   id="g3"
   transform="translate(-3.425,-6)">
	<rect
   x="22"
   y="22"
   fill="#ffffff"
   width="4"
   height="4"
   id="rect2" />
	<path
   fill="#ffffff"
   d="m 33,21 v -2 h -3 v -1 h -1 v -3 h -2 v 3 h -2 v -3 h -2 v 3 h -2 v -3 h -2 v 3 h -1 v 1 h -3 v 2 h 3 v 2 h -3 v 2 h 3 v 2 h -3 v 2 h 3 v 1 h 1 v 3 h 2 v -3 h 2 v 3 h 2 v -3 h 2 v 3 h 2 v -3 h 1 v -1 h 3 v -2 h -3 v -2 h 3 v -2 h -3 v -2 z m -13,7 v -8 h 8 v 8 z"
   id="path3" />
</g>
</svg>
