<?xml version="1.0" encoding="UTF-8" standalone="no"?>
<svg
   viewBox="-0.10149301 -1.3469646 32.786778 25.280945"
   width="460.43286"
   height="370.548"
   version="1.1"
   id="svg5"
   sodipodi:docname="google-cloud-3.svg"
   inkscape:version="1.3.2 (091e20e, 2023-11-25, custom)"
   xmlns:inkscape="http://www.inkscape.org/namespaces/inkscape"
   xmlns:sodipodi="http://sodipodi.sourceforge.net/DTD/sodipodi-0.dtd"
   xmlns="http://www.w3.org/2000/svg"
   xmlns:svg="http://www.w3.org/2000/svg"
   xmlns:rdf="http://www.w3.org/1999/02/22-rdf-syntax-ns#"
   xmlns:cc="http://creativecommons.org/ns#"
   xmlns:dc="http://purl.org/dc/elements/1.1/">
  <title
     id="title5">Sheets-icon</title>
  <defs
     id="defs5" />
  <sodipodi:namedview
     id="namedview5"
     pagecolor="#ffffff"
     bordercolor="#666666"
     borderopacity="1.0"
     inkscape:showpageshadow="2"
     inkscape:pageopacity="0.0"
     inkscape:pagecheckerboard="true"
     inkscape:deskcolor="#d1d1d1"
     inkscape:zoom="0.4452"
     inkscape:cx="44.92363"
     inkscape:cy="167.34052"
     inkscape:window-width="1920"
     inkscape:window-height="1017"
     inkscape:window-x="-8"
     inkscape:window-y="-8"
     inkscape:window-maximized="1"
     inkscape:current-layer="svg5" />
  <g
     id="g5"
     transform="translate(-1.1468074,-2.1442672)">
    <path
       d="m 21.85,7.41 h 1 L 25.7,4.56 25.84,3.35 A 12.81,12.81 0 0 0 5,9.6 1.55,1.55 0 0 1 6,9.54 L 11.7,8.6 c 0,0 0.29,-0.48 0.44,-0.45 a 7.11,7.11 0 0 1 9.73,-0.74 z"
       fill="#ea4335"
       id="path1" />
    <path
       d="M 29.76,9.6 A 12.84,12.84 0 0 0 25.89,3.36 l -4,4 A 7.11,7.11 0 0 1 24.5,13 v 0.71 a 3.56,3.56 0 1 1 0,7.12 h -7.12 l -0.71,0.72 v 4.27 l 0.71,0.71 H 24.5 A 9.26,9.26 0 0 0 29.76,9.6 Z"
       fill="#4285f4"
       id="path2" />
    <path
       d="m 10.25,26.49 h 7.12 v -5.7 H 10.25 A 3.54,3.54 0 0 1 8.78,20.47 l -1,0.31 -2.87,2.85 -0.25,1 a 9.21,9.21 0 0 0 5.59,1.86 z"
       fill="#34a853"
       id="path3" />
    <path
       d="M 10.25,8 A 9.26,9.26 0 0 0 4.66,24.6 l 4.13,-4.13 a 3.56,3.56 0 1 1 4.71,-4.71 l 4.13,-4.13 A 9.25,9.25 0 0 0 10.25,8 Z"
       fill="#fbbc05"
       id="path4" />
  </g>
  <metadata
     id="metadata5">
    <rdf:RDF>
      <cc:Work
         rdf:about="">
        <dc:title>Group.svg</dc:title>
      </cc:Work>
    </rdf:RDF>
  </metadata>
</svg>
