<?xml version="1.0" encoding="UTF-8" standalone="no"?>
<!-- Generator: Adobe Illustrator 24.1.1, SVG Export Plug-In . SVG Version: 6.00 Build 0)  -->

<svg
   version="1.1"
   id="Layer_1"
   x="0px"
   y="0px"
   viewBox="0 0 1080 1080"
   style="enable-background:new 0 0 1080 1080;"
   xml:space="preserve"
   sodipodi:docname="Keras_logo.svg"
   inkscape:version="1.3.2 (091e20e, 2023-11-25, custom)"
   xmlns:inkscape="http://www.inkscape.org/namespaces/inkscape"
   xmlns:sodipodi="http://sodipodi.sourceforge.net/DTD/sodipodi-0.dtd"
   xmlns="http://www.w3.org/2000/svg"
   xmlns:svg="http://www.w3.org/2000/svg"><defs
   id="defs3" /><sodipodi:namedview
   id="namedview3"
   pagecolor="#ffffff"
   bordercolor="#666666"
   borderopacity="1.0"
   inkscape:showpageshadow="2"
   inkscape:pageopacity="0.0"
   inkscape:pagecheckerboard="true"
   inkscape:deskcolor="#d1d1d1"
   inkscape:zoom="0.77685185"
   inkscape:cx="540"
   inkscape:cy="540"
   inkscape:window-width="1920"
   inkscape:window-height="1017"
   inkscape:window-x="-8"
   inkscape:window-y="-8"
   inkscape:window-maximized="1"
   inkscape:current-layer="Layer_1" />
<style
   type="text/css"
   id="style1">
	.st0{fill:#FFFFFF;}
	.st1{fill:#D00000;}
</style>
<g
   id="g1">
	<path
   class="st0"
   d="M1080,1079.96c0,0.02-0.02,0.04-0.04,0.04H0.04c-0.02,0-0.04-0.02-0.04-0.04V0.04C0,0.02,0.02,0,0.04,0   h1079.93c0.02,0,0.04,0.02,0.04,0.04V1079.96z"
   id="path1" />
</g>
<g
   id="g2">
	<path
   class="st1"
   d="M1062,1061.96c0,0.02-0.02,0.04-0.04,0.04H18.04c-0.02,0-0.04-0.02-0.04-0.04V18.04   c0-0.02,0.02-0.04,0.04-0.04h1043.93c0.02,0,0.04,0.02,0.04,0.04V1061.96z"
   id="path2" />
</g>
<g
   id="g3">
	<path
   class="st0"
   d="M303,823.67c0,0.79,0.46,1.89,1.01,2.44l17.87,17.87c0.56,0.56,1.66,1.01,2.44,1.01h61.15   c0.79,0,1.89-0.46,2.44-1.01l17.87-17.87c0.56-0.56,1.01-1.66,1.01-2.44V629.64c0-0.79,0.47-1.88,1.04-2.42l77.69-74.2   c0.57-0.54,1.4-0.46,1.84,0.2l196.29,290.6c0.44,0.65,1.45,1.19,2.23,1.19h86.63c0.79,0,1.73-0.57,2.09-1.27l15.72-30.46   c0.36-0.7,0.29-1.8-0.16-2.45L560.56,478.03c-0.45-0.65-0.36-1.63,0.2-2.19l211.18-210.19c0.56-0.56,1.01-1.65,1.01-2.44v-3.88   c0-0.79-0.26-2.02-0.57-2.75l-12.18-28.01c-0.31-0.72-1.22-1.31-2-1.31h-85.63c-0.79,0-1.89,0.46-2.44,1.01l-262.31,263.3   c-0.56,0.56-1.01,0.37-1.01-0.42V249.6c0-0.79-0.44-1.9-0.98-2.48l-17.53-18.8c-0.54-0.58-1.62-1.05-2.41-1.05h-61.57   c-0.79,0-1.87,0.47-2.41,1.05l-17.95,19.38c-0.54,0.58-0.97,1.69-0.97,2.48V823.67z"
   id="path3" />
</g>
</svg>
