<?xml version="1.0" encoding="UTF-8" standalone="no"?>
<svg
   width="300.40277"
   height="150.00926"
   viewBox="0 0 300.40277 150.00926"
   fill="none"
   version="1.1"
   id="svg24"
   sodipodi:docname="langchain-seeklogo.svg"
   inkscape:version="1.3.2 (091e20e, 2023-11-25, custom)"
   xmlns:inkscape="http://www.inkscape.org/namespaces/inkscape"
   xmlns:sodipodi="http://sodipodi.sourceforge.net/DTD/sodipodi-0.dtd"
   xmlns="http://www.w3.org/2000/svg"
   xmlns:svg="http://www.w3.org/2000/svg">
  <sodipodi:namedview
     id="namedview24"
     pagecolor="#ffffff"
     bordercolor="#666666"
     borderopacity="1.0"
     inkscape:showpageshadow="2"
     inkscape:pageopacity="0.0"
     inkscape:pagecheckerboard="true"
     inkscape:deskcolor="#d1d1d1"
     inkscape:zoom="2.0433423"
     inkscape:cx="145.3501"
     inkscape:cy="75.122021"
     inkscape:window-width="1920"
     inkscape:window-height="1017"
     inkscape:window-x="-8"
     inkscape:window-y="-8"
     inkscape:window-maximized="1"
     inkscape:current-layer="svg24" />
  <g
     id="g1"
     transform="translate(-14.522739,-4.9951195)">
    <path
       d="m 50.0124,119.351 c 0,0 3.05,12.55 2.575,14.312 -0.475,1.763 -9.15,3.163 -14.2,5.75 -3.3125,1.7 -8.65,5.488 -5.4,8.55 1.7625,1.663 6.6875,-2.537 21.475,-3.387 15.0125,-0.863 17.6625,0.362 16.8875,-2.813 -0.7625,-3.162 -4.75,-3.525 -8.1,-4.925 -1.1125,-0.462 -2.4,-1.2 -2.9375,-2 -0.5125,-0.762 0.2375,-13.725 0.2375,-13.725 z"
       fill="#feba02"
       id="path1" />
    <path
       d="m 77.7,128.149 c 0,0 0.35,12.688 0.35,13.5 0,1.188 -2.9,2.613 -7.2125,3.575 -4.3125,0.963 -12.85,2.563 -12.9625,8.025 -0.075,3.363 16.4,-1.187 25.8125,-1.05 9.4125,0.138 15.45,1.375 15.0125,-2.575 -0.35,-3.162 -5.25,-4.6 -7.8875,-5.175 -2.6375,-0.575 -3.8375,-1.862 -3.9125,-3.437 -0.05,-1.025 0.175,-12.588 0.175,-12.588 z"
       fill="#feba02"
       id="path2" />
    <path
       d="m 52.3626,10.013 11.325,-0.76251 c 0,0 6.3,2.03751 12.2875,10.71251 7.95,11.5375 6.9,32.6375 6.9,32.6375 l 21.8249,58.1875 2.638,19.237 c 0,0 -19.5254,3.075 -38.6504,0.588 -22.525,-2.938 -45.75,-23.35 -45.4,-53.85 0.35,-30.5 24.525,-59.95 24.525,-59.95 z"
       fill="url(#paint0_linear_1_89)"
       id="path3"
       style="fill:url(#paint0_linear_1_89)" />
    <path
       d="m 26.4378,21.1631 c 0,0 -8.6875,2.7 -11.15,12.4375 -2.4625,9.7375 1.65,18.8 3.4625,19.4125 0.7,0.2375 2.875,-4.1625 2.875,-4.1625 0,0 3.05,3.525 4.575,4.3375 1.525,0.825 2.2875,1.4375 3.6375,1.35 2.6375,-0.175 6.5125,-7.8625 6.4,-13.025 l 1.35,-25.2875 z"
       fill="#ffd51d"
       id="path4" />
    <path
       d="m 37.3123,35.1131 c 0,0 10.5875,-1.7625 14.8125,-5.4 4.225,-3.6375 9.15,-6.925 10.7875,-13.4875 1,-4 1.05,-6.8 1.05,-6.8 0,0 -14.7625,-8.562504 -28.1375,-1.525 -13.375,7.0375 -10.2125,16.6 -10.2125,16.6 z"
       fill="#ff2b23"
       id="path5" />
    <path
       d="m 36.8747,36.5259 c 0,0 -8.5625,5.05 -9.5,5.75 -0.9375,0.7 -4,2.225 -5.4,3.4 -2.225,1.875 -4.225,6.1 -3.4,7.1625 0.825,1.05 2,-2.225 5.275,-4.225 3.275,-2 8.9125,-5.1625 10.4375,-5.9875 1.525,-0.825 2,-1.2875 2,-1.2875 z"
       fill="#ff600d"
       id="path6" />
    <path
       d="m 39.7875,34.325 c 0.5875,-1.2375 0.85,-4.075 -3.1375,-9.0625 -4.6875,-5.8625 -11.2625,-6.1 -11.2625,-6.1 l -0.7,2.35 7.275,7.275 L 36,37.5 c 0,0 2.575,-0.625 3.7875,-3.175 z"
       fill="#a02a1b"
       id="path7" />
    <path
       d="m 19.8627,25.5004 c 0,0 5.4,0.35 9.15,3.6375 2.225,1.95 5.5875,6.125 6.4125,8.0125 0.825,1.8875 3.6375,-3.3375 1.4125,-6.8625 -2.225,-3.525 -4.8875,-7.0625 -9.8125,-8.775 -3.55,-1.225 -6.925,1.7625 -7.1625,3.9875 z"
       fill="#ec80af"
       id="path8" />
    <path
       d="m 61.8625,32.425 c 0,0 -4.3375,-11.025 -13.2625,-10.5625 -9,0.475 -10.3875,7.1625 -9.975,11.15 0.475,4.6125 3.525,7.1625 10.5625,6.925 7.05,-0.25 12.675,-7.5125 12.675,-7.5125 z"
       fill="#fbd3b3"
       id="path9" />
    <path
       d="m 55.2999,31.0113 c 0,2.85 -3.1,5.4 -5.925,5.4 -2.8125,0 -5.1,-2.3125 -5.1,-5.1625 0,-2.85 1.6375,-5.9875 5.625,-6.2125 4.2125,-0.2625 5.4,3.125 5.4,5.975 z"
       fill="#312f2a"
       id="path10" />
    <path
       d="m 107.975,100.938 c 0,0 2.812,6.337 13.612,13.374 9.163,5.975 13.613,9.626 19.951,11.851 6.337,2.225 6.575,2.812 6.337,3.987 -0.237,1.175 -10.088,8.8 -20.888,7.863 -10.787,-0.938 -15.95,-5.163 -19.237,-7.388 -3.288,-2.225 -9.5,-17.95 -9.5,-17.95 z"
       fill="#01ab46"
       id="path11" />
    <path
       d="m 82.925,52.3 c 0,0 -14.9625,4.4 -21.525,14.375 -5.5,8.35 -5.0125,22.55 0.5875,33.0875 6.925,13.0245 21.2375,22.2875 28.8625,25.8125 7.625,3.525 18.062,5.275 22.637,4.812 4.575,-0.462 -4.1,-32.0245 -12.437,-48.9245 C 92.925,64.975 82.925,52.3 82.925,52.3 Z"
       fill="#b7d019"
       id="path12" />
    <path
       d="m 189.888,130.025 c -8.125,-8.288 -8.125,-21.513 0,-29.8 l 23.425,-23.4252 c 2.55,-2.55 5.9,-4.4625 9.4,-5.4125 3.5,-0.95 7.175,-0.95 10.513,-0.1625 3.5,0.95 6.85,2.7125 9.562,5.2625 0.163,0.1625 0.163,0.1625 0.313,0.3125 8.287,8.2875 8.287,21.5125 0,29.8002 l -23.425,23.425 c -8.275,8.287 -21.663,8.287 -29.788,0 z m 66.288,-66.2877 c -15.45,-15.45 -40.788,-15.45 -56.25,0 l -23.263,23.425 c -15.45,15.4497 -15.45,40.7877 0,56.2497 15.45,15.463 40.788,15.45 56.25,0 l 23.425,-23.425 c 15.288,-15.462 15.288,-40.7872 -0.162,-56.2497 z"
       fill="#84b0c1"
       id="path13" />
    <path
       d="m 243.575,60.5998 c 4.2,-2.1125 8.213,-0.6375 8.213,-0.6375 -8.675,-6.4125 -18.138,-8.2375 -26.288,-7.725 -0.05,0.0625 -0.087,0.125 -0.137,0.2 -3.575,5.4875 -4.375,12.7375 -2.15,18.8375 3.35,-0.825 6.825,-0.8 10,-0.0375 1.3,0.35 2.287,0.6875 4.237,1.6 0.013,-0.0125 -0.675,-8.8125 6.125,-12.2375 z"
       fill="#2f7889"
       id="path14" />
    <path
       d="m 218.452,73.0749 c 0.162,-1.2125 0.237,-2.4375 0.312,-3.6625 0.35,-5.275 1.25,-10.525 2.675,-15.6125 0.1,-0.3625 0.2,-0.75 0.3,-1.1375 -3.862,0.6125 -7.65,1.7875 -11.212,3.5375 -5.55,7.1625 -3.725,16.4375 2.787,20.6125 1.488,-1.4875 3.238,-2.75 5.138,-3.7375 z"
       fill="#2f7889"
       id="path15" />
    <path
       d="m 290.113,29.9748 c 8.125,8.2875 8.125,21.5125 0,29.8 l -23.425,23.425 c -2.55,2.55 -5.9,4.4625 -9.4,5.4125 -3.5,0.95 -7.175,0.95 -10.512,0.1625 -3.5,-0.95 -6.85,-2.7125 -9.563,-5.2625 -0.162,-0.1625 -0.162,-0.1625 -0.312,-0.3125 -8.288,-8.2875 -8.288,-21.5125 0,-29.8 l 23.425,-23.425 c 8.275,-8.2875 21.662,-8.2875 29.787,0 z m -66.287,66.2875 c 15.45,15.4497 40.787,15.4497 56.25,0 l 23.262,-23.425 c 15.45,-15.45 15.45,-40.7875 0,-56.25 -15.45,-15.46249 -40.787,-15.44999 -56.25,0 l -23.412,23.425 c -15.3,15.4625 -15.3,40.7875 0.15,56.25 z"
       fill="#84b0c1"
       id="path16" />
    <path
       d="m 223.062,49.2747 c 0.05,-0.0375 0.1,-0.0875 0.15,-0.125 0.662,-0.575 1.4,-1.125 2.262,-1.275 0.863,-0.15 1.875,0.2375 2.175,1.0625 0.225,0.6125 0.025,1.2875 -0.187,1.9 -3.288,9.9375 -5.925,22.55 -2.725,32.8375 0.312,1 0.612,2.2875 -0.225,2.9125 -0.488,0.375 -1.213,0.3125 -1.75,0.025 -5.875,-3.175 -6.9,-11.775 -7.175,-17.675 -0.325,-7.45 1.737,-14.625 7.475,-19.6625 z"
       fill="#a8e3f0"
       id="path17" />
    <path
       d="m 249.152,89.1749 c -0.8,-0.1 -1.65,-0.2625 -1.65,-0.2625 0,0 -0.125,5.3375 -4.388,9.7625 -4.725,4.9001 -9.437,4.7751 -9.437,4.7751 2.487,1.437 7.45,2.925 9.25,3.35 l 0.187,-0.188 c 4.788,-4.8 6.788,-11.2496 6.038,-17.4371 z"
       fill="#2f7889"
       id="path18" />
    <path
       d="m 273.45,76.4368 -6.663,6.6625 c 1.663,7.425 1.213,15.225 -1.362,22.4247 3.237,-1.15 6.35,-2.737 9.25,-4.75 4.787,-8.1997 3.737,-17.8872 -1.225,-24.3372 z"
       fill="#2f7889"
       id="path19" />
    <path
       d="m 259.863,87.5123 c -0.787,-1.9875 -2.325,-4 -4.25,-3.8125 -1.2,0.1125 -3.062,1.2375 -2.937,4.675 0.087,2.6625 1.1,5.2625 -0.35,8.75 -2.125,5.1002 -1.638,6.4752 -1.125,7.2872 0.562,0.888 1.6,1.288 2.562,1.275 2.538,-0.012 4.638,-2.337 5.788,-4.887 1.862,-4.0752 1.975,-9.1127 0.312,-13.2877 z"
       fill="#a8e3f0"
       id="path20" />
    <path
       d="m 221.563,135.225 c 0.8,-0.662 2.875,-2.875 3.837,-1.475 -0.35,3.85 -3.312,6.988 -6.562,9.088 -4,2.587 -8.738,4.112 -13.5,3.975 -3.95,-0.113 -10.5,-1.713 -12.8,-5.375 -1.875,-2.975 2.087,-3.488 4.287,-2.663 7.838,2.988 16.7,3.05 24.738,-3.55 z"
       fill="#a8e3f0"
       id="path21" />
  </g>
  <defs
     id="defs24">
    <linearGradient
       id="paint0_linear_1_89"
       x1="58.567101"
       y1="121.322"
       x2="82.321701"
       y2="42.061401"
       gradientUnits="userSpaceOnUse">
      <stop
         offset="0.1362"
         stop-color="#79DA88"
         id="stop21" />
      <stop
         offset="0.3039"
         stop-color="#57CD75"
         id="stop22" />
      <stop
         offset="0.6343"
         stop-color="#19B553"
         id="stop23" />
      <stop
         offset="0.7914"
         stop-color="#01AB46"
         id="stop24" />
    </linearGradient>
  </defs>
</svg>
