<?xml version="1.0" encoding="UTF-8" standalone="no"?>
<!-- Generator: Adobe Illustrator 23.0.1, SVG Export Plug-In . SVG Version: 6.00 Build 0)  -->

<svg
   version="1.1"
   id="Livello_1"
   x="0px"
   y="0px"
   viewBox="0 0 2289.75 2289.75"
   enable-background="new 0 0 2289.75 2130"
   xml:space="preserve"
   sodipodi:docname="Microsoft_Office_Excel.svg"
   inkscape:version="1.3.2 (091e20e, 2023-11-25, custom)"
   width="2289.75"
   height="2289.75"
   xmlns:inkscape="http://www.inkscape.org/namespaces/inkscape"
   xmlns:sodipodi="http://sodipodi.sourceforge.net/DTD/sodipodi-0.dtd"
   xmlns="http://www.w3.org/2000/svg"
   xmlns:svg="http://www.w3.org/2000/svg"
   xmlns:ns="&amp;#38;ns_sfw;"><defs
   id="defs12" /><sodipodi:namedview
   id="namedview12"
   pagecolor="#ffffff"
   bordercolor="#666666"
   borderopacity="1.0"
   inkscape:showpageshadow="2"
   inkscape:pageopacity="0.0"
   inkscape:pagecheckerboard="true"
   inkscape:deskcolor="#d1d1d1"
   inkscape:zoom="0.35200349"
   inkscape:cx="1144.875"
   inkscape:cy="1061.069"
   inkscape:window-width="1920"
   inkscape:window-height="1017"
   inkscape:window-x="-8"
   inkscape:window-y="-8"
   inkscape:window-maximized="1"
   inkscape:current-layer="Livello_1" />
<metadata
   id="metadata1">
	<ns:sfw>
		<ns:slices />
		<ns:sliceSourceBounds
   bottomLeftOrigin="true"
   height="2130"
   width="2289.75"
   x="-1147.5"
   y="-1041" />
	</ns:sfw>
</metadata>







<linearGradient
   id="SVGID_1_"
   gradientUnits="userSpaceOnUse"
   x1="203.5132"
   y1="1729.0183"
   x2="967.98682"
   y2="404.98169"
   gradientTransform="matrix(1,0,0,-1,0,2132)">
	<stop
   offset="0"
   style="stop-color:#18884F"
   id="stop7" />
	<stop
   offset="0.5"
   style="stop-color:#117E43"
   id="stop8" />
	<stop
   offset="1"
   style="stop-color:#0B6631"
   id="stop9" />
</linearGradient>



<g
   id="g1"
   transform="translate(0,79.875)"><path
     fill="#185c37"
     d="M 1437.75,1011.75 532.5,852 v 1180.393 c 0,53.907 43.7,97.607 97.607,97.607 v 0 h 1562.036 c 53.907,0 97.607,-43.7 97.607,-97.607 v 0 -434.893 z"
     id="path1" /><path
     fill="#21a366"
     d="M 1437.75,0 H 630.107 C 576.2,0 532.5,43.7 532.5,97.607 c 0,0 0,0 0,0 V 532.5 L 1437.75,1065 1917,1224.75 2289.75,1065 V 532.5 Z"
     id="path2" /><path
     fill="#107c41"
     d="m 532.5,532.5 h 905.25 V 1065 H 532.5 Z"
     id="path3" /><path
     opacity="0.1"
     enable-background="new    "
     d="M 1180.393,426 H 532.5 v 1331.25 h 647.893 c 53.834,-0.175 97.432,-43.773 97.607,-97.607 V 523.607 c -0.175,-53.834 -43.773,-97.432 -97.607,-97.607 z"
     id="path4" /><path
     opacity="0.2"
     enable-background="new    "
     d="M 1127.143,479.25 H 532.5 V 1810.5 h 594.643 c 53.834,-0.175 97.432,-43.773 97.607,-97.607 V 576.857 c -0.175,-53.834 -43.773,-97.432 -97.607,-97.607 z"
     id="path5" /><path
     opacity="0.2"
     enable-background="new    "
     d="M 1127.143,479.25 H 532.5 V 1704 h 594.643 c 53.834,-0.175 97.432,-43.773 97.607,-97.607 V 576.857 c -0.175,-53.834 -43.773,-97.432 -97.607,-97.607 z"
     id="path6" /><path
     opacity="0.2"
     enable-background="new    "
     d="M 1073.893,479.25 H 532.5 V 1704 h 541.393 c 53.834,-0.175 97.432,-43.773 97.607,-97.607 V 576.857 c -0.175,-53.834 -43.773,-97.432 -97.607,-97.607 z"
     id="path7" /><path
     fill="url(#SVGID_1_)"
     d="m 97.607,479.25 h 976.285 c 53.907,0 97.607,43.7 97.607,97.607 v 976.285 c 0,53.907 -43.7,97.607 -97.607,97.607 H 97.607 C 43.7,1650.75 0,1607.05 0,1553.143 V 576.857 C 0,522.95 43.7,479.25 97.607,479.25 Z"
     id="path9"
     style="fill:url(#SVGID_1_)" /><path
     fill="#ffffff"
     d="M 302.3,1382.264 507.632,1064.095 319.5,747.683 h 151.336 l 102.666,202.35 c 9.479,19.223 15.975,33.494 19.49,42.919 h 1.331 c 6.745,-15.336 13.845,-30.228 21.3,-44.677 L 725.371,747.79 H 864.3 L 671.375,1062.338 869.2,1382.263 H 721.378 L 602.79,1160.158 c -5.586,-9.45 -10.326,-19.376 -14.164,-29.66 h -1.757 c -3.474,10.075 -8.083,19.722 -13.739,28.755 l -122.102,223.011 z"
     id="path10" /><path
     fill="#33c481"
     d="M 2192.143,0 H 1437.75 v 532.5 h 852 V 97.607 C 2289.75,43.7 2246.05,0 2192.143,0 Z"
     id="path11" /><path
     fill="#107c41"
     d="m 1437.75,1065 h 852 v 532.5 h -852 z"
     id="path12" /></g>
</svg>
