<?xml version="1.0" encoding="UTF-8" standalone="no"?>
<svg
   viewBox="0 0 207.97001 222.26"
   version="1.1"
   id="svg12"
   sodipodi:docname="NumPy_logo_2020.svg"
   width="207.97"
   height="222.25999"
   inkscape:version="1.3.2 (091e20e, 2023-11-25, custom)"
   xmlns:inkscape="http://www.inkscape.org/namespaces/inkscape"
   xmlns:sodipodi="http://sodipodi.sourceforge.net/DTD/sodipodi-0.dtd"
   xmlns="http://www.w3.org/2000/svg"
   xmlns:svg="http://www.w3.org/2000/svg"
   xmlns:rdf="http://www.w3.org/1999/02/22-rdf-syntax-ns#"
   xmlns:cc="http://creativecommons.org/ns#"
   xmlns:dc="http://purl.org/dc/elements/1.1/">
  <title
     id="title12">Artboard 63</title>
  <sodipodi:namedview
     id="namedview12"
     pagecolor="#ffffff"
     bordercolor="#666666"
     borderopacity="1.0"
     inkscape:showpageshadow="2"
     inkscape:pageopacity="0.0"
     inkscape:pagecheckerboard="true"
     inkscape:deskcolor="#d1d1d1"
     inkscape:zoom="1.1913668"
     inkscape:cx="317.28264"
     inkscape:cy="111.2168"
     inkscape:window-width="1920"
     inkscape:window-height="1017"
     inkscape:window-x="-8"
     inkscape:window-y="-8"
     inkscape:window-maximized="1"
     inkscape:current-layer="svg12" />
  <defs
     id="defs1">
    <style
       id="style1">.cls-1{fill:#4d77cf;}.cls-2{fill:#4dabcf;}</style>
  </defs>
  <g
     id="g12"
     transform="translate(-44,-51.24)">
    <polygon
       class="cls-2"
       points="132.38,96.4 95.25,77.66 54.49,98 92.63,117.15 "
       id="polygon5" />
    <polygon
       class="cls-2"
       points="149.41,104.99 188.34,124.65 147.95,144.93 109.75,125.75 "
       id="polygon6" />
    <polygon
       class="cls-2"
       points="201.41,77.94 241.41,98 205.63,115.96 166.62,96.28 "
       id="polygon7" />
    <polygon
       class="cls-2"
       points="184.19,69.3 148.18,51.24 112.56,69.02 149.67,87.73 "
       id="polygon8" />
    <polygon
       class="cls-2"
       points="156.04,224.36 156.04,273.5 199.66,251.73 199.62,202.57 "
       id="polygon9" />
    <polygon
       class="cls-2"
       points="199.6,185.41 199.55,136.77 156.04,158.4 156.04,207.06 "
       id="polygon10" />
    <polygon
       class="cls-2"
       points="251.97,176.3 251.97,225.63 214.76,244.19 214.73,195.09 "
       id="polygon11" />
    <polygon
       class="cls-2"
       points="251.97,159.05 251.97,110.71 214.69,129.24 214.72,177.98 "
       id="polygon12" />
    <path
       class="cls-1"
       d="m 140.64,158.4 -29.38,-14.78 v 63.84 c 0,0 -35.94,-76.46 -39.26,-83.33 -0.43,-0.89 -2.19,-1.86 -2.64,-2.1 C 62.88,118.65 44,109.09 44,109.09 v 112.83 l 26.12,14 v -59 c 0,0 35.55,68.32 35.92,69.07 0.37,0.75 3.92,7.94 7.74,10.47 5.07,3.37 26.84,16.46 26.84,16.46 z"
       id="path12" />
  </g>
  <metadata
     id="metadata12">
    <rdf:RDF>
      <cc:Work
         rdf:about="">
        <dc:title>Artboard 63</dc:title>
      </cc:Work>
    </rdf:RDF>
  </metadata>
</svg>
