<?xml version="1.0" encoding="UTF-8" standalone="no"?>
<svg
   width="299.99982"
   height="163.14879"
   viewBox="0 0 299.99982 163.14879"
   fill="none"
   version="1.1"
   id="svg3"
   sodipodi:docname="streamlit-mark-color.svg"
   inkscape:version="1.3.2 (091e20e, 2023-11-25, custom)"
   xmlns:inkscape="http://www.inkscape.org/namespaces/inkscape"
   xmlns:sodipodi="http://sodipodi.sourceforge.net/DTD/sodipodi-0.dtd"
   xmlns="http://www.w3.org/2000/svg"
   xmlns:svg="http://www.w3.org/2000/svg"
   xmlns:rdf="http://www.w3.org/1999/02/22-rdf-syntax-ns#"
   xmlns:cc="http://creativecommons.org/ns#"
   xmlns:dc="http://purl.org/dc/elements/1.1/">
  <title
     id="title3">Sql data base with logo</title>
  <defs
     id="defs3" />
  <sodipodi:namedview
     id="namedview3"
     pagecolor="#ffffff"
     bordercolor="#666666"
     borderopacity="1.0"
     inkscape:showpageshadow="2"
     inkscape:pageopacity="0.0"
     inkscape:pagecheckerboard="true"
     inkscape:deskcolor="#d1d1d1"
     inkscape:zoom="2.6777409"
     inkscape:cx="147.51241"
     inkscape:cy="82.345533"
     inkscape:window-width="1920"
     inkscape:window-height="1017"
     inkscape:window-x="-8"
     inkscape:window-y="-8"
     inkscape:window-maximized="1"
     inkscape:current-layer="svg3" />
  <g
     id="g3"
     transform="translate(-0.74951444,5.38e-4)">
    <path
       d="M 150.731,101.547 98.1387,73.7471 6.84674,25.4969 C 6.7634,25.4136 6.59674,25.4136 6.51341,25.4136 3.18007,23.8303 -0.236608,27.1636 1.0134,30.497 l 46.5168,118.642 0.0083,0.025 c 0.05,0.117 0.0917,0.233 0.1417,0.35 1.9083,4.425 6.075,7.158 10.6084,8.233 0.3833,0.084 0.6575,0.159 1.1178,0.251 0.4581,0.102 1.0988,0.241 1.6488,0.283 0.0917,0.008 0.175,0.008 0.2667,0.016 h 0.0667 c 0.0666,0.009 0.1333,0.009 0.2,0.017 h 0.0916 c 0.0584,0.008 0.125,0.008 0.1834,0.008 h 0.1083 c 0.0667,0.009 0.1333,0.009 0.2,0.009 v 0 c 58.9121,6.423 118.3471,6.423 177.2591,0 v 0 c 0.708,0 1.4,-0.034 2.066,-0.1 0.217,-0.025 0.425,-0.05 0.634,-0.075 0.025,-0.009 0.058,-0.009 0.083,-0.017 0.142,-0.017 0.283,-0.042 0.425,-0.067 0.208,-0.025 0.417,-0.066 0.625,-0.108 0.417,-0.092 0.606,-0.158 1.172,-0.353 0.565,-0.194 1.504,-0.534 2.091,-0.817 0.588,-0.283 0.995,-0.555 1.487,-0.863 0.608,-0.384 1.187,-0.776 1.774,-1.216 0.253,-0.194 0.426,-0.318 0.609,-0.493 l -0.1,-0.058 z"
       fill="#ff4b4b"
       id="path1" />
    <path
       d="m 294.766,25.4981 h -0.083 l -91.326,48.2502 50.767,75.6087 46.4,-118.8589 v -0.1666 c 1.167,-3.5001 -2.416,-6.6667 -5.758,-4.8334"
       fill="#7d353b"
       id="path2" />
    <path
       d="m 155.598,2.55572 c -2.334,-3.408344 -7.417,-3.408344 -9.667,0 l -47.7921,71.19198 52.5921,27.8003 99.667,52.674 c 0.626,-0.613 1.128,-1.21 1.658,-1.841 0.75,-0.925 1.45,-1.916 2.067,-3.025 L 203.356,73.7477 Z"
       fill="#bd4043"
       id="path3" />
  </g>
  <metadata
     id="metadata3">
    <rdf:RDF>
      <cc:Work
         rdf:about="">
        <dc:title>Sql data base with logo</dc:title>
      </cc:Work>
    </rdf:RDF>
  </metadata>
</svg>
